<svg xmlns="http://www.w3.org/2000/svg" xmlns:xlink="http://www.w3.org/1999/xlink" width="200" zoomAndPan="magnify" viewBox="0 0 150 52.499999" height="70" preserveAspectRatio="xMidYMid meet" version="1.0"><defs><g/><clipPath id="id1"><path d="M 55.757812 13.226562 L 94.34375 13.226562 L 94.34375 48.378906 L 55.757812 48.378906 Z M 55.757812 13.226562 " clip-rule="nonzero"/></clipPath><clipPath id="id2"><path d="M 68 3.804688 L 76 3.804688 L 76 11 L 68 11 Z M 68 3.804688 " clip-rule="nonzero"/></clipPath><clipPath id="id3"><path d="M 0.707031 4 L 9 4 L 9 17.832031 L 0.707031 17.832031 Z M 0.707031 4 " clip-rule="nonzero"/></clipPath><clipPath id="id4"><path d="M 0.707031 4 L 10 4 L 10 17.832031 L 0.707031 17.832031 Z M 0.707031 4 " clip-rule="nonzero"/></clipPath><clipPath id="id5"><path d="M 5 0 L 18.539062 0 L 18.539062 9 L 5 9 Z M 5 0 " clip-rule="nonzero"/></clipPath><clipPath id="id6"><path d="M 4 0 L 18.539062 0 L 18.539062 9 L 4 9 Z M 4 0 " clip-rule="nonzero"/></clipPath><clipPath id="id7"><path d="M 0.707031 0 L 13 0 L 13 13 L 0.707031 13 Z M 0.707031 0 " clip-rule="nonzero"/></clipPath><clipPath id="id8"><path d="M 0.707031 0 L 14 0 L 14 13 L 0.707031 13 Z M 0.707031 0 " clip-rule="nonzero"/></clipPath><clipPath id="id9"><path d="M 5 43 L 18.820312 43 L 18.820312 51.796875 L 5 51.796875 Z M 5 43 " clip-rule="nonzero"/></clipPath><clipPath id="id10"><path d="M 0.992188 33.96875 L 10 33.96875 L 10 48 L 0.992188 48 Z M 0.992188 33.96875 " clip-rule="nonzero"/></clipPath><clipPath id="id11"><path d="M 1 39 L 14 39 L 14 51.796875 L 1 51.796875 Z M 1 39 " clip-rule="nonzero"/></clipPath><clipPath id="id12"><path d="M 0.992188 39 L 14 39 L 14 51.796875 L 0.992188 51.796875 Z M 0.992188 39 " clip-rule="nonzero"/></clipPath><clipPath id="id13"><path d="M 141 34.035156 L 149.292969 34.035156 L 149.292969 48 L 141 48 Z M 141 34.035156 " clip-rule="nonzero"/></clipPath><clipPath id="id14"><path d="M 140 34.035156 L 149.292969 34.035156 L 149.292969 48 L 140 48 Z M 140 34.035156 " clip-rule="nonzero"/></clipPath><clipPath id="id15"><path d="M 131.546875 43 L 145 43 L 145 51.863281 L 131.546875 51.863281 Z M 131.546875 43 " clip-rule="nonzero"/></clipPath><clipPath id="id16"><path d="M 131.546875 43 L 146 43 L 146 51.863281 L 131.546875 51.863281 Z M 131.546875 43 " clip-rule="nonzero"/></clipPath><clipPath id="id17"><path d="M 137 39 L 149.292969 39 L 149.292969 51.863281 L 137 51.863281 Z M 137 39 " clip-rule="nonzero"/></clipPath><clipPath id="id18"><path d="M 136 39 L 149.292969 39 L 149.292969 51.863281 L 136 51.863281 Z M 136 39 " clip-rule="nonzero"/></clipPath><clipPath id="id19"><path d="M 130.792969 0.222656 L 145 0.222656 L 145 9 L 130.792969 9 Z M 130.792969 0.222656 " clip-rule="nonzero"/></clipPath><clipPath id="id20"><path d="M 130.792969 0.222656 L 146 0.222656 L 146 10 L 130.792969 10 Z M 130.792969 0.222656 " clip-rule="nonzero"/></clipPath><clipPath id="id21"><path d="M 140 5 L 149.292969 5 L 149.292969 18.792969 L 140 18.792969 Z M 140 5 " clip-rule="nonzero"/></clipPath><clipPath id="id22"><path d="M 140 4 L 149.292969 4 L 149.292969 18.792969 L 140 18.792969 Z M 140 4 " clip-rule="nonzero"/></clipPath><clipPath id="id23"><path d="M 136 0.222656 L 149.292969 0.222656 L 149.292969 13 L 136 13 Z M 136 0.222656 " clip-rule="nonzero"/></clipPath><clipPath id="id24"><path d="M 136 0.222656 L 149.292969 0.222656 L 149.292969 14 L 136 14 Z M 136 0.222656 " clip-rule="nonzero"/></clipPath></defs><g fill="#ad8d02" fill-opacity="1"><g transform="translate(12.713709, 31.202829)"><g><path d="M 28.3125 -16.796875 L 27.28125 -16.59375 C 26.0625 -14.488281 24.890625 -11.648438 23.765625 -8.078125 C 23.335938 -6.734375 22.734375 -5.1875 21.953125 -3.4375 C 21.179688 -1.6875 20.316406 -0.0664062 19.359375 1.421875 C 18.078125 3.421875 16.367188 5.066406 14.234375 6.359375 C 12.109375 7.648438 10.164062 8.414062 8.40625 8.65625 C 7.59375 8.769531 6.671875 8.828125 5.640625 8.828125 C 4.609375 8.828125 3.546875 8.644531 2.453125 8.28125 C 0.742188 7.707031 -0.425781 6.769531 -1.0625 5.46875 C -1.34375 4.863281 -1.484375 4.15625 -1.484375 3.34375 C -1.484375 2.539062 -1.269531 1.59375 -0.84375 0.5 C -0.539062 -0.226562 -0.0078125 -0.910156 0.75 -1.546875 C 1.507812 -2.179688 2.101562 -2.503906 2.53125 -2.515625 C 2.71875 -2.535156 2.8125 -2.503906 2.8125 -2.421875 C 2.800781 -2.359375 2.695312 -2.28125 2.5 -2.1875 C 2 -1.976562 1.4375 -1.523438 0.8125 -0.828125 C 0.195312 -0.128906 -0.207031 0.566406 -0.40625 1.265625 C -0.601562 1.972656 -0.703125 2.519531 -0.703125 2.90625 C -0.703125 4.0625 -0.394531 4.992188 0.21875 5.703125 C 0.644531 6.179688 1.175781 6.609375 1.8125 6.984375 C 2.445312 7.367188 3.128906 7.632812 3.859375 7.78125 C 4.941406 7.976562 5.796875 8.078125 6.421875 8.078125 C 7.054688 8.078125 7.617188 8.015625 8.109375 7.890625 C 9.191406 7.648438 10.234375 7.253906 11.234375 6.703125 C 12.242188 6.148438 13.132812 5.546875 13.90625 4.890625 C 14.6875 4.234375 15.460938 3.421875 16.234375 2.453125 C 17.003906 1.484375 17.648438 0.601562 18.171875 -0.1875 C 18.703125 -0.976562 19.257812 -1.929688 19.84375 -3.046875 C 20.789062 -4.847656 21.765625 -6.925781 22.765625 -9.28125 C 24.015625 -12.0625 25.285156 -14.46875 26.578125 -16.5 C 24.367188 -16.132812 22.125 -15.34375 19.84375 -14.125 C 18.6875 -13.507812 17.695312 -12.722656 16.875 -11.765625 C 15.8125 -10.566406 15.28125 -9.273438 15.28125 -7.890625 C 15.28125 -7.148438 15.457031 -6.570312 15.8125 -6.15625 C 16.164062 -5.75 16.539062 -5.546875 16.9375 -5.546875 C 17.332031 -5.546875 17.769531 -5.628906 18.25 -5.796875 C 18.726562 -5.972656 19.15625 -6.273438 19.53125 -6.703125 C 20.132812 -7.398438 20.4375 -8.203125 20.4375 -9.109375 C 20.4375 -9.484375 20.378906 -9.738281 20.265625 -9.875 C 20.078125 -10 20.0625 -10.113281 20.21875 -10.21875 C 20.394531 -10.320312 20.578125 -10.269531 20.765625 -10.0625 C 20.921875 -9.707031 21 -9.296875 21 -8.828125 C 21 -8.367188 20.828125 -7.835938 20.484375 -7.234375 C 19.898438 -6.234375 19.09375 -5.550781 18.0625 -5.1875 C 17.582031 -5.03125 17.128906 -4.953125 16.703125 -4.953125 C 15.984375 -4.953125 15.34375 -5.179688 14.78125 -5.640625 C 14.050781 -6.242188 13.6875 -7.050781 13.6875 -8.0625 C 13.6875 -9.34375 14.144531 -10.570312 15.0625 -11.75 C 15.757812 -12.65625 16.578125 -13.398438 17.515625 -13.984375 C 18.460938 -14.566406 19.53125 -15.085938 20.71875 -15.546875 C 22.632812 -16.296875 24.71875 -16.820312 26.96875 -17.125 C 27.164062 -17.4375 27.453125 -17.804688 27.828125 -18.234375 C 28.210938 -18.660156 28.53125 -18.914062 28.78125 -19 C 29.03125 -19.082031 29.238281 -19.125 29.40625 -19.125 C 29.957031 -19.125 30.234375 -18.882812 30.234375 -18.40625 C 30.210938 -17.976562 30.035156 -17.648438 29.703125 -17.421875 C 29.367188 -17.191406 28.90625 -16.984375 28.3125 -16.796875 Z M 29.046875 -18.359375 C 29.015625 -18.359375 28.976562 -18.347656 28.9375 -18.328125 C 28.894531 -18.316406 28.835938 -18.28125 28.765625 -18.21875 C 28.691406 -18.164062 28.625 -18.113281 28.5625 -18.0625 C 28.5 -18.019531 28.425781 -17.953125 28.34375 -17.859375 C 28.257812 -17.765625 28.1875 -17.6875 28.125 -17.625 C 28.070312 -17.570312 28 -17.492188 27.90625 -17.390625 C 27.8125 -17.285156 27.75 -17.21875 27.71875 -17.1875 C 28.8125 -17.382812 29.347656 -17.679688 29.328125 -18.078125 C 29.296875 -18.265625 29.203125 -18.359375 29.046875 -18.359375 Z M 29.046875 -18.359375 "/></g></g></g><g fill="#ad8d02" fill-opacity="1"><g transform="translate(35.679038, 31.202829)"><g><path d="M 0.515625 -1.375 C 0.515625 -2.0625 0.8125 -2.890625 1.40625 -3.859375 C 1.144531 -3.859375 1.070312 -3.984375 1.1875 -4.234375 L 1.609375 -5.0625 C 2.148438 -6.09375 2.597656 -6.96875 2.953125 -7.6875 C 3.109375 -8.019531 3.414062 -8.1875 3.875 -8.1875 L 5.328125 -8.1875 C 4.753906 -7.769531 4.175781 -6.96875 3.59375 -5.78125 C 3.019531 -4.601562 2.570312 -3.675781 2.25 -3 C 1.9375 -2.332031 1.78125 -1.820312 1.78125 -1.46875 C 1.78125 -1.125 1.835938 -0.878906 1.953125 -0.734375 C 2.078125 -0.585938 2.242188 -0.515625 2.453125 -0.515625 C 2.753906 -0.515625 3.171875 -0.832031 3.703125 -1.46875 C 4.546875 -2.457031 5.726562 -4.53125 7.25 -7.6875 C 7.425781 -8.019531 7.738281 -8.1875 8.1875 -8.1875 L 9.46875 -8.1875 C 9.113281 -7.914062 8.835938 -7.632812 8.640625 -7.34375 C 8.441406 -7.0625 8.171875 -6.554688 7.828125 -5.828125 C 6.867188 -3.921875 6.335938 -2.660156 6.234375 -2.046875 C 6.179688 -1.828125 6.15625 -1.617188 6.15625 -1.421875 C 6.15625 -0.921875 6.332031 -0.65625 6.6875 -0.625 C 7.539062 -0.625 8.59375 -1.945312 9.84375 -4.59375 C 9.9375 -4.8125 10.03125 -4.894531 10.125 -4.84375 C 10.226562 -4.800781 10.28125 -4.738281 10.28125 -4.65625 C 10.28125 -4.582031 10.207031 -4.398438 10.0625 -4.109375 C 9.914062 -3.828125 9.773438 -3.550781 9.640625 -3.28125 C 9.503906 -3.007812 9.296875 -2.640625 9.015625 -2.171875 C 8.742188 -1.703125 8.488281 -1.332031 8.25 -1.0625 C 7.632812 -0.375 7.03125 -0.03125 6.4375 -0.03125 C 5.84375 -0.03125 5.429688 -0.289062 5.203125 -0.8125 C 5.109375 -1.050781 5.0625 -1.351562 5.0625 -1.71875 C 5.0625 -2.082031 5.140625 -2.53125 5.296875 -3.0625 C 4.140625 -1.039062 3.070312 -0.03125 2.09375 -0.03125 C 1.238281 -0.03125 0.738281 -0.382812 0.59375 -1.09375 C 0.539062 -1.175781 0.515625 -1.269531 0.515625 -1.375 Z M 0.515625 -1.375 "/></g></g></g><g fill="#ad8d02" fill-opacity="1"><g transform="translate(44.166227, 31.202829)"><g><path d="M 3.40625 -0.453125 C 3.613281 -0.421875 3.757812 -0.40625 3.84375 -0.40625 C 4.46875 -0.40625 5.09375 -0.773438 5.71875 -1.515625 C 6.050781 -1.929688 6.644531 -2.972656 7.5 -4.640625 C 7.53125 -4.710938 7.585938 -4.75 7.671875 -4.75 C 7.804688 -4.769531 7.875 -4.71875 7.875 -4.59375 C 7.875 -4.5625 7.835938 -4.46875 7.765625 -4.3125 C 7.703125 -4.164062 7.632812 -4.015625 7.5625 -3.859375 C 7.5 -3.710938 7.394531 -3.492188 7.25 -3.203125 C 7.113281 -2.921875 6.992188 -2.691406 6.890625 -2.515625 C 6.785156 -2.347656 6.65625 -2.132812 6.5 -1.875 C 6.34375 -1.625 6.1875 -1.425781 6.03125 -1.28125 L 5.53125 -0.765625 C 5.257812 -0.492188 4.941406 -0.300781 4.578125 -0.1875 C 3.984375 0 3.410156 0.015625 2.859375 -0.140625 C 2.492188 0.015625 2.171875 0.09375 1.890625 0.09375 C 0.765625 0.09375 0.0820312 -0.347656 -0.15625 -1.234375 C -0.207031 -1.441406 -0.234375 -1.691406 -0.234375 -1.984375 C -0.234375 -2.273438 -0.132812 -2.554688 0.0625 -2.828125 C 0.257812 -3.097656 0.472656 -3.242188 0.703125 -3.265625 C 1.503906 -4.796875 2.191406 -6.179688 2.765625 -7.421875 C 3.398438 -8.765625 4.140625 -9.4375 4.984375 -9.4375 C 5.203125 -9.4375 5.414062 -9.382812 5.625 -9.28125 C 5.84375 -9.175781 5.921875 -9.0625 5.859375 -8.9375 C 5.804688 -8.8125 5.691406 -8.785156 5.515625 -8.859375 C 5.347656 -8.941406 5.195312 -8.984375 5.0625 -8.984375 C 4.9375 -8.984375 4.828125 -8.960938 4.734375 -8.921875 C 4.203125 -8.660156 3.9375 -8.113281 3.9375 -7.28125 C 3.9375 -6.832031 4 -6.460938 4.125 -6.171875 C 4.25 -5.890625 4.390625 -5.582031 4.546875 -5.25 C 4.910156 -4.425781 5.09375 -3.753906 5.09375 -3.234375 C 5.09375 -2.710938 4.925781 -2.195312 4.59375 -1.6875 C 4.257812 -1.175781 3.863281 -0.765625 3.40625 -0.453125 Z M 2.59375 -0.625 C 3.289062 -1.15625 3.640625 -2.023438 3.640625 -3.234375 C 3.640625 -3.722656 3.582031 -4.394531 3.46875 -5.25 C 3.363281 -6.113281 3.3125 -6.691406 3.3125 -6.984375 C 3.3125 -7.285156 3.320312 -7.492188 3.34375 -7.609375 C 2.132812 -5.203125 1.382812 -3.734375 1.09375 -3.203125 C 1.425781 -3.203125 1.59375 -2.96875 1.59375 -2.5 C 1.59375 -1.5625 1.925781 -0.9375 2.59375 -0.625 Z M 0.8125 -1.265625 C 0.8125 -1.171875 0.820312 -1.066406 0.84375 -0.953125 C 0.96875 -0.523438 1.257812 -0.3125 1.71875 -0.3125 C 1.90625 -0.3125 2.066406 -0.34375 2.203125 -0.40625 C 1.609375 -0.769531 1.289062 -1.363281 1.25 -2.1875 C 0.957031 -1.90625 0.8125 -1.597656 0.8125 -1.265625 Z M 0.8125 -1.265625 "/></g></g></g><g fill="#ad8d02" fill-opacity="1"><g transform="translate(50.252277, 31.202829)"><g><path d="M 0.765625 -1.90625 C 0.765625 -3.21875 1.394531 -5.421875 2.65625 -8.515625 L 1.421875 -8.515625 C 1.347656 -8.515625 1.296875 -8.554688 1.265625 -8.640625 C 1.242188 -8.734375 1.253906 -8.820312 1.296875 -8.90625 C 1.335938 -8.988281 1.394531 -9.03125 1.46875 -9.03125 L 2.90625 -9.03125 C 3.46875 -10.289062 3.992188 -11.335938 4.484375 -12.171875 C 4.984375 -13.015625 5.4375 -13.582031 5.84375 -13.875 C 6.257812 -14.164062 6.554688 -14.3125 6.734375 -14.3125 C 6.921875 -14.3125 7.054688 -14.296875 7.140625 -14.265625 C 7.503906 -14.085938 7.6875 -13.722656 7.6875 -13.171875 C 7.6875 -12.628906 7.503906 -11.96875 7.140625 -11.1875 C 6.773438 -10.414062 6.414062 -9.695312 6.0625 -9.03125 L 7.203125 -9.03125 C 7.285156 -9.03125 7.335938 -8.988281 7.359375 -8.90625 C 7.378906 -8.820312 7.367188 -8.734375 7.328125 -8.640625 C 7.296875 -8.554688 7.238281 -8.515625 7.15625 -8.515625 L 5.78125 -8.515625 C 4.90625 -7.035156 3.847656 -5.726562 2.609375 -4.59375 L 2.0625 -2.171875 C 2.019531 -1.960938 2 -1.757812 2 -1.5625 C 2 -1.363281 2.050781 -1.160156 2.15625 -0.953125 C 2.269531 -0.742188 2.445312 -0.640625 2.6875 -0.640625 C 2.957031 -0.640625 3.257812 -0.734375 3.59375 -0.921875 C 4.351562 -1.492188 5.191406 -2.691406 6.109375 -4.515625 C 6.171875 -4.660156 6.242188 -4.75 6.328125 -4.78125 C 6.421875 -4.8125 6.472656 -4.789062 6.484375 -4.71875 C 6.503906 -4.644531 6.484375 -4.53125 6.421875 -4.375 C 5.898438 -3.28125 5.488281 -2.503906 5.1875 -2.046875 C 4.332031 -0.660156 3.421875 0.03125 2.453125 0.03125 C 1.960938 0.03125 1.554688 -0.148438 1.234375 -0.515625 C 0.921875 -0.878906 0.765625 -1.34375 0.765625 -1.90625 Z M 5.546875 -9.03125 C 6.585938 -10.90625 7.109375 -12.207031 7.109375 -12.9375 C 7.109375 -13.25 7.050781 -13.40625 6.9375 -13.40625 C 6.769531 -13.40625 6.503906 -13.148438 6.140625 -12.640625 C 5.785156 -12.140625 5.191406 -10.9375 4.359375 -9.03125 Z M 5.234375 -8.515625 L 4.109375 -8.515625 C 3.921875 -8.066406 3.492188 -7.007812 2.828125 -5.34375 C 3.679688 -6.238281 4.484375 -7.296875 5.234375 -8.515625 Z M 5.234375 -8.515625 "/></g></g></g><g fill="#ad8d02" fill-opacity="1"><g transform="translate(55.007, 31.202829)"><g><path d="M 4.609375 -9.25 C 4.390625 -9.0625 4.144531 -8.96875 3.875 -8.96875 C 3.601562 -8.96875 3.390625 -9.0625 3.234375 -9.25 C 3.078125 -9.4375 3.015625 -9.664062 3.046875 -9.9375 C 3.085938 -10.207031 3.21875 -10.4375 3.4375 -10.625 C 3.664062 -10.820312 3.914062 -10.921875 4.1875 -10.921875 C 4.457031 -10.921875 4.675781 -10.820312 4.84375 -10.625 C 5.007812 -10.4375 5.066406 -10.207031 5.015625 -9.9375 C 4.972656 -9.664062 4.835938 -9.4375 4.609375 -9.25 Z M 2.28125 -0.515625 C 2.582031 -0.515625 2.898438 -0.664062 3.234375 -0.96875 C 3.816406 -1.5625 4.5625 -2.757812 5.46875 -4.5625 C 5.582031 -4.800781 5.691406 -4.875 5.796875 -4.78125 C 5.828125 -4.75 5.84375 -4.695312 5.84375 -4.625 C 5.84375 -4.550781 5.78125 -4.375 5.65625 -4.09375 C 5.53125 -3.820312 5.414062 -3.570312 5.3125 -3.34375 C 5.207031 -3.125 5.007812 -2.765625 4.71875 -2.265625 C 4.425781 -1.765625 4.160156 -1.382812 3.921875 -1.125 C 3.273438 -0.375 2.660156 0 2.078125 0 C 1.503906 0 1.085938 -0.171875 0.828125 -0.515625 C 0.578125 -0.867188 0.453125 -1.257812 0.453125 -1.6875 C 0.453125 -2.113281 0.554688 -2.582031 0.765625 -3.09375 L 2.28125 -6.96875 C 2.3125 -7.0625 2.328125 -7.1875 2.328125 -7.34375 C 2.328125 -7.507812 2.234375 -7.71875 2.046875 -7.96875 L 3.359375 -7.984375 C 3.722656 -7.984375 3.9375 -7.914062 4 -7.78125 C 4.0625 -7.65625 4.015625 -7.445312 3.859375 -7.15625 L 1.953125 -2.71875 C 1.679688 -2.125 1.546875 -1.625 1.546875 -1.21875 C 1.546875 -0.75 1.789062 -0.515625 2.28125 -0.515625 Z M 2.28125 -0.515625 "/></g></g></g><g fill="#ad8d02" fill-opacity="1"><g transform="translate(59.14361, 31.202829)"><g><path d="M 8.53125 -7.796875 C 6.582031 -4.367188 5.609375 -2.132812 5.609375 -1.09375 C 5.609375 -0.675781 5.757812 -0.46875 6.0625 -0.46875 C 6.875 -0.46875 7.960938 -1.84375 9.328125 -4.59375 C 9.421875 -4.8125 9.515625 -4.894531 9.609375 -4.84375 C 9.703125 -4.800781 9.75 -4.738281 9.75 -4.65625 C 9.75 -4.582031 9.71875 -4.488281 9.65625 -4.375 C 8.8125 -2.675781 8.097656 -1.503906 7.515625 -0.859375 C 6.941406 -0.222656 6.363281 0.09375 5.78125 0.09375 C 5.207031 0.09375 4.769531 -0.128906 4.46875 -0.578125 C 4.3125 -0.773438 4.234375 -1.050781 4.234375 -1.40625 C 4.234375 -1.769531 4.3125 -2.203125 4.46875 -2.703125 C 4.625 -3.210938 5.0625 -4.039062 5.78125 -5.1875 C 5.957031 -5.46875 6.046875 -5.691406 6.046875 -5.859375 C 6.046875 -6.023438 5.910156 -6.109375 5.640625 -6.109375 C 5.367188 -6.109375 4.851562 -5.753906 4.09375 -5.046875 C 2.945312 -3.992188 1.84375 -2.421875 0.78125 -0.328125 C 0.6875 -0.171875 0.578125 -0.0703125 0.453125 -0.03125 C 0.335938 0.0078125 0.109375 0.0351562 -0.234375 0.046875 C -0.585938 0.0664062 -0.816406 0.109375 -0.921875 0.171875 C -0.671875 -0.335938 -0.171875 -1.378906 0.578125 -2.953125 C 1.898438 -5.722656 2.769531 -7.304688 3.1875 -7.703125 C 3.375 -7.890625 3.632812 -7.984375 3.96875 -7.984375 C 4.03125 -7.984375 4.191406 -7.957031 4.453125 -7.90625 C 4.710938 -7.863281 4.910156 -7.859375 5.046875 -7.890625 C 4.453125 -7.578125 3.492188 -6.085938 2.171875 -3.421875 C 2.910156 -4.335938 3.582031 -5.066406 4.1875 -5.609375 C 4.800781 -6.160156 5.535156 -6.671875 6.390625 -7.140625 C 7.253906 -7.609375 7.882812 -7.84375 8.28125 -7.84375 C 8.375 -7.84375 8.457031 -7.828125 8.53125 -7.796875 Z M 8.53125 -7.796875 "/></g></g></g><g fill="#ad8d02" fill-opacity="1"><g transform="translate(67.107773, 31.202829)"><g><path d="M 2.40625 -3.65625 C 2.175781 -3.125 2.0625 -2.523438 2.0625 -1.859375 C 2.0625 -1.410156 2.160156 -1.054688 2.359375 -0.796875 C 2.554688 -0.535156 2.835938 -0.40625 3.203125 -0.40625 C 4.648438 -0.40625 5.960938 -1.757812 7.140625 -4.46875 C 7.242188 -4.71875 7.375 -4.828125 7.53125 -4.796875 C 7.601562 -4.785156 7.640625 -4.75 7.640625 -4.6875 C 7.640625 -4.625 7.457031 -4.207031 7.09375 -3.4375 C 6.738281 -2.664062 6.378906 -2.039062 6.015625 -1.5625 C 5.203125 -0.457031 4.203125 0.09375 3.015625 0.09375 C 2.378906 0.09375 1.835938 -0.109375 1.390625 -0.515625 C 0.953125 -0.929688 0.734375 -1.492188 0.734375 -2.203125 C 0.734375 -2.921875 0.90625 -3.679688 1.25 -4.484375 C 1.59375 -5.285156 2.054688 -6.03125 2.640625 -6.71875 C 3.222656 -7.40625 3.894531 -7.910156 4.65625 -8.234375 C 5.019531 -8.390625 5.367188 -8.46875 5.703125 -8.46875 C 6.035156 -8.46875 6.347656 -8.375 6.640625 -8.1875 C 6.910156 -7.957031 7.046875 -7.707031 7.046875 -7.4375 C 7.046875 -6.488281 6.472656 -5.578125 5.328125 -4.703125 C 4.972656 -4.429688 4.476562 -4.1875 3.84375 -3.96875 C 3.21875 -3.757812 2.738281 -3.65625 2.40625 -3.65625 Z M 6.390625 -7.46875 C 6.390625 -7.78125 6.265625 -7.9375 6.015625 -7.9375 C 5.566406 -7.9375 4.894531 -7.390625 4 -6.296875 C 3.457031 -5.628906 2.976562 -4.882812 2.5625 -4.0625 C 2.832031 -4.0625 3.222656 -4.15625 3.734375 -4.34375 C 4.253906 -4.539062 4.707031 -4.796875 5.09375 -5.109375 C 5.957031 -5.859375 6.390625 -6.644531 6.390625 -7.46875 Z M 6.390625 -7.46875 "/></g></g></g><g fill="#ad8d02" fill-opacity="1"><g transform="translate(72.956081, 31.202829)"><g/></g></g><g fill="#ad8d02" fill-opacity="1"><g transform="translate(79.113446, 31.202829)"><g><path d="M 24.6875 -4.5625 C 24.6875 -3.65625 24.359375 -2.816406 23.703125 -2.046875 C 22.785156 -0.929688 21.5625 -0.128906 20.03125 0.359375 C 18.882812 0.722656 17.769531 0.90625 16.6875 0.90625 C 16.289062 0.90625 15.90625 0.878906 15.53125 0.828125 C 13.039062 0.515625 10.929688 -0.03125 9.203125 -0.8125 C 7.628906 0.34375 5.972656 0.921875 4.234375 0.921875 C 2.171875 0.921875 0.894531 0.351562 0.40625 -0.78125 C 0.289062 -1.050781 0.234375 -1.367188 0.234375 -1.734375 C 0.234375 -2.097656 0.414062 -2.488281 0.78125 -2.90625 C 1.351562 -3.539062 2.144531 -3.859375 3.15625 -3.859375 C 3.820312 -3.859375 4.425781 -3.757812 4.96875 -3.5625 C 5.507812 -3.375 6.175781 -3.066406 6.96875 -2.640625 C 7.757812 -2.210938 8.347656 -1.90625 8.734375 -1.71875 C 9.429688 -2.394531 10.148438 -3.335938 10.890625 -4.546875 C 11.640625 -5.765625 12.296875 -6.957031 12.859375 -8.125 C 13.421875 -9.289062 14.132812 -10.585938 15 -12.015625 C 15.875 -13.441406 16.765625 -14.648438 17.671875 -15.640625 L 19.03125 -17.1875 C 17.769531 -17.414062 16.382812 -17.53125 14.875 -17.53125 C 13.375 -17.53125 11.722656 -17.332031 9.921875 -16.9375 C 7.441406 -16.40625 5.535156 -15.34375 4.203125 -13.75 C 3.398438 -12.78125 3 -11.859375 3 -10.984375 C 3 -9.828125 3.5625 -9.078125 4.6875 -8.734375 C 5.082031 -8.617188 5.429688 -8.5625 5.734375 -8.5625 C 6.035156 -8.5625 6.382812 -8.613281 6.78125 -8.71875 C 7.175781 -8.832031 7.554688 -9.066406 7.921875 -9.421875 C 8.296875 -9.785156 8.566406 -10.132812 8.734375 -10.46875 C 8.898438 -10.800781 8.984375 -11.050781 8.984375 -11.21875 C 8.984375 -11.382812 9.066406 -11.46875 9.234375 -11.46875 C 9.390625 -11.445312 9.472656 -11.332031 9.484375 -11.125 L 9.484375 -11.109375 C 9.316406 -9.953125 8.703125 -9.070312 7.640625 -8.46875 C 6.984375 -8.113281 6.332031 -7.9375 5.6875 -7.9375 L 4.453125 -8.15625 C 2.765625 -8.738281 1.921875 -9.832031 1.921875 -11.4375 C 1.921875 -12.53125 2.40625 -13.609375 3.375 -14.671875 C 4.925781 -16.410156 7.207031 -17.5 10.21875 -17.9375 C 11.675781 -18.132812 13.191406 -18.234375 14.765625 -18.234375 C 16.347656 -18.234375 17.957031 -18.0625 19.59375 -17.71875 C 20.039062 -18.09375 20.429688 -18.34375 20.765625 -18.46875 C 21.097656 -18.601562 21.289062 -18.671875 21.34375 -18.671875 C 21.394531 -18.671875 21.429688 -18.660156 21.453125 -18.640625 C 21.546875 -18.640625 21.5625 -18.585938 21.5 -18.484375 C 21.445312 -18.378906 21.273438 -18.234375 20.984375 -18.046875 C 20.691406 -17.859375 20.515625 -17.6875 20.453125 -17.53125 C 22.609375 -16.96875 24.160156 -16.175781 25.109375 -15.15625 C 25.617188 -14.582031 25.875 -14 25.875 -13.40625 C 25.875 -12.8125 25.695312 -12.210938 25.34375 -11.609375 C 24.882812 -10.816406 24.140625 -10.21875 23.109375 -9.8125 C 22.078125 -9.40625 21.039062 -9.175781 20 -9.125 C 21.007812 -8.8125 21.953125 -8.367188 22.828125 -7.796875 C 24.066406 -6.992188 24.6875 -5.914062 24.6875 -4.5625 Z M 16.359375 0.234375 C 18.140625 0.234375 19.644531 -0.269531 20.875 -1.28125 C 22.226562 -2.363281 22.90625 -3.53125 22.90625 -4.78125 C 22.90625 -6.082031 22.210938 -7.066406 20.828125 -7.734375 C 20.328125 -7.960938 19.707031 -8.191406 18.96875 -8.421875 C 18.226562 -8.660156 17.628906 -8.859375 17.171875 -9.015625 C 16.722656 -9.171875 16.46875 -9.320312 16.40625 -9.46875 C 16.40625 -9.769531 16.632812 -9.925781 17.09375 -9.9375 C 17.394531 -9.9375 17.851562 -9.910156 18.46875 -9.859375 C 19.09375 -9.816406 19.625 -9.800781 20.0625 -9.8125 C 20.507812 -9.820312 21.046875 -9.976562 21.671875 -10.28125 C 22.296875 -10.59375 22.832031 -10.992188 23.28125 -11.484375 C 24 -12.273438 24.359375 -13.019531 24.359375 -13.71875 C 24.359375 -15.207031 22.960938 -16.28125 20.171875 -16.9375 C 19.328125 -15.78125 17.816406 -13.332031 15.640625 -9.59375 C 13.472656 -5.863281 11.800781 -3.363281 10.625 -2.09375 L 9.71875 -1.234375 C 11.507812 -0.492188 13.4375 -0.0195312 15.5 0.1875 C 15.800781 0.21875 16.085938 0.234375 16.359375 0.234375 Z M 8.203125 -1.265625 C 6.347656 -2.148438 5.175781 -2.675781 4.6875 -2.84375 C 4.195312 -3.019531 3.707031 -3.109375 3.21875 -3.109375 C 2.738281 -3.109375 2.351562 -2.9375 2.0625 -2.59375 C 1.78125 -2.257812 1.640625 -1.953125 1.640625 -1.671875 C 1.640625 -1.398438 1.703125 -1.132812 1.828125 -0.875 C 2.179688 -0.164062 2.910156 0.1875 4.015625 0.1875 C 5.523438 0.1875 6.921875 -0.296875 8.203125 -1.265625 Z M 8.203125 -1.265625 "/></g></g></g><g fill="#ad8d02" fill-opacity="1"><g transform="translate(103.861801, 31.202829)"><g><path d="M 4.578125 -9.53125 C 4.578125 -8.820312 4.125 -8.148438 3.21875 -7.515625 C 3.53125 -7.492188 3.953125 -7.484375 4.484375 -7.484375 C 5.015625 -7.484375 5.6875 -7.523438 6.5 -7.609375 C 6.53125 -7.554688 6.546875 -7.425781 6.546875 -7.21875 C 6.546875 -7.019531 6.453125 -6.71875 6.265625 -6.3125 C 6.078125 -5.90625 5.90625 -5.554688 5.75 -5.265625 C 5.601562 -4.972656 5.460938 -4.695312 5.328125 -4.4375 C 5.191406 -4.175781 5.039062 -3.851562 4.875 -3.46875 C 4.707031 -3.09375 4.566406 -2.742188 4.453125 -2.421875 C 4.054688 -1.222656 4.117188 -0.625 4.640625 -0.625 C 5.304688 -0.625 6.289062 -1.945312 7.59375 -4.59375 C 7.707031 -4.800781 7.796875 -4.878906 7.859375 -4.828125 C 7.929688 -4.773438 7.96875 -4.710938 7.96875 -4.640625 C 7.96875 -4.578125 7.863281 -4.332031 7.65625 -3.90625 C 7.457031 -3.488281 7.238281 -3.054688 7 -2.609375 C 6.757812 -2.171875 6.382812 -1.65625 5.875 -1.0625 C 5.28125 -0.332031 4.703125 0.03125 4.140625 0.03125 C 3.523438 0.03125 3.097656 -0.34375 2.859375 -1.09375 C 2.816406 -1.238281 2.796875 -1.453125 2.796875 -1.734375 C 2.796875 -2.023438 2.882812 -2.40625 3.0625 -2.875 C 3.25 -3.351562 3.539062 -3.929688 3.9375 -4.609375 C 4.332031 -5.296875 4.550781 -5.695312 4.59375 -5.8125 C 4.644531 -5.9375 4.671875 -6.050781 4.671875 -6.15625 C 4.671875 -6.644531 4.035156 -6.90625 2.765625 -6.9375 L 2.484375 -6.1875 C 1.484375 -3.570312 0.523438 -1.816406 -0.390625 -0.921875 C -0.554688 -0.785156 -0.640625 -0.832031 -0.640625 -1.0625 C -0.640625 -1.113281 -0.625 -1.171875 -0.59375 -1.234375 C 0.300781 -2.410156 1.070312 -3.796875 1.71875 -5.390625 C 2.363281 -6.992188 2.816406 -8.519531 3.078125 -9.96875 C 3.171875 -10.457031 3.390625 -10.703125 3.734375 -10.703125 C 4.085938 -10.703125 4.34375 -10.476562 4.5 -10.03125 C 4.550781 -9.894531 4.578125 -9.726562 4.578125 -9.53125 Z M 4.578125 -9.53125 "/></g></g></g><g fill="#ad8d02" fill-opacity="1"><g transform="translate(110.042949, 31.202829)"><g><path d="M 5.6875 -8.328125 C 6.84375 -8.328125 7.421875 -7.597656 7.421875 -6.140625 C 7.421875 -5.472656 7.242188 -4.757812 6.890625 -4 C 6.453125 -2.96875 5.789062 -2.03125 4.90625 -1.1875 C 5.101562 -0.789062 5.472656 -0.59375 6.015625 -0.59375 C 6.441406 -0.59375 6.847656 -0.804688 7.234375 -1.234375 C 7.703125 -1.722656 8.039062 -2.15625 8.25 -2.53125 C 8.457031 -2.90625 8.609375 -3.175781 8.703125 -3.34375 C 8.796875 -3.519531 8.914062 -3.769531 9.0625 -4.09375 C 9.21875 -4.425781 9.3125 -4.625 9.34375 -4.6875 C 9.375 -4.757812 9.429688 -4.796875 9.515625 -4.796875 C 9.671875 -4.816406 9.75 -4.765625 9.75 -4.640625 C 9.75 -4.585938 9.734375 -4.53125 9.703125 -4.46875 L 9.5625 -4.140625 C 9.46875 -3.921875 9.394531 -3.757812 9.34375 -3.65625 C 9.300781 -3.5625 9.21875 -3.390625 9.09375 -3.140625 C 8.976562 -2.898438 8.875 -2.707031 8.78125 -2.5625 C 8.695312 -2.425781 8.578125 -2.238281 8.421875 -2 C 8.273438 -1.757812 8.140625 -1.566406 8.015625 -1.421875 C 7.898438 -1.285156 7.753906 -1.128906 7.578125 -0.953125 C 7.410156 -0.773438 7.25 -0.640625 7.09375 -0.546875 C 6.695312 -0.304688 6.320312 -0.1875 5.96875 -0.1875 C 5.320312 -0.1875 4.816406 -0.394531 4.453125 -0.8125 C 3.722656 -0.269531 3.046875 0 2.421875 0 C 1.265625 0 0.6875 -0.726562 0.6875 -2.1875 C 0.6875 -2.851562 0.863281 -3.566406 1.21875 -4.328125 C 1.6875 -5.441406 2.351562 -6.382812 3.21875 -7.15625 C 4.082031 -7.9375 4.90625 -8.328125 5.6875 -8.328125 Z M 5.953125 -7.59375 C 5.515625 -7.59375 5.003906 -7.304688 4.421875 -6.734375 C 3.835938 -6.160156 3.316406 -5.382812 2.859375 -4.40625 C 2.296875 -3.257812 2.015625 -2.320312 2.015625 -1.59375 C 2.015625 -0.863281 2.296875 -0.5 2.859375 -0.5 C 3.253906 -0.5 3.695312 -0.710938 4.1875 -1.140625 C 3.9375 -1.503906 3.8125 -1.894531 3.8125 -2.3125 C 3.84375 -2.988281 4.117188 -3.328125 4.640625 -3.328125 C 4.847656 -3.328125 5.015625 -3.253906 5.140625 -3.109375 C 5.273438 -2.972656 5.34375 -2.84375 5.34375 -2.71875 C 5.34375 -2.601562 5.328125 -2.484375 5.296875 -2.359375 C 5.566406 -2.753906 5.878906 -3.316406 6.234375 -4.046875 C 6.628906 -4.847656 6.828125 -5.640625 6.828125 -6.421875 C 6.828125 -7.203125 6.535156 -7.59375 5.953125 -7.59375 Z M 5.953125 -7.59375 "/></g></g></g><g fill="#ad8d02" fill-opacity="1"><g transform="translate(118.007112, 31.202829)"><g><path d="M 11.96875 -8.296875 L 11.84375 -7.890625 C 11.144531 -5.578125 10.507812 -3.882812 9.9375 -2.8125 C 8.90625 -0.90625 7.78125 0.046875 6.5625 0.046875 C 5.988281 0.046875 5.597656 -0.0976562 5.390625 -0.390625 C 5.191406 -0.679688 5.078125 -0.945312 5.046875 -1.1875 C 5.023438 -1.425781 5.015625 -1.632812 5.015625 -1.8125 C 5.015625 -2.238281 5.085938 -2.703125 5.234375 -3.203125 C 4.054688 -1.066406 3 0 2.0625 0 C 1.71875 0 1.398438 -0.0976562 1.109375 -0.296875 C 0.828125 -0.492188 0.65625 -0.757812 0.59375 -1.09375 C 0.539062 -1.175781 0.515625 -1.269531 0.515625 -1.375 C 0.515625 -2.0625 0.8125 -2.890625 1.40625 -3.859375 C 1.144531 -3.859375 1.070312 -3.984375 1.1875 -4.234375 L 1.609375 -5.0625 C 2.390625 -6.582031 2.835938 -7.457031 2.953125 -7.6875 C 3.109375 -8.019531 3.414062 -8.1875 3.875 -8.1875 L 5.328125 -8.1875 C 4.753906 -7.769531 4.175781 -6.96875 3.59375 -5.78125 C 3.019531 -4.601562 2.578125 -3.679688 2.265625 -3.015625 C 1.960938 -2.347656 1.8125 -1.835938 1.8125 -1.484375 C 1.8125 -1.128906 1.867188 -0.875 1.984375 -0.71875 C 2.109375 -0.570312 2.265625 -0.5 2.453125 -0.5 C 2.640625 -0.5 2.867188 -0.628906 3.140625 -0.890625 C 3.410156 -1.148438 3.65625 -1.429688 3.875 -1.734375 C 4.09375 -2.035156 4.316406 -2.375 4.546875 -2.75 C 4.785156 -3.132812 5 -3.5 5.1875 -3.84375 C 5.375 -4.1875 5.578125 -4.582031 5.796875 -5.03125 C 6.023438 -5.476562 6.203125 -5.832031 6.328125 -6.09375 C 6.785156 -7.007812 7.039062 -7.539062 7.09375 -7.6875 C 7.226562 -8.019531 7.523438 -8.1875 7.984375 -8.1875 L 9.4375 -8.1875 C 9.40625 -8.15625 9.316406 -8.085938 9.171875 -7.984375 C 8.859375 -7.785156 8.628906 -7.554688 8.484375 -7.296875 C 7.773438 -6.109375 7.273438 -5.148438 6.984375 -4.421875 C 6.359375 -2.804688 6.046875 -1.769531 6.046875 -1.3125 C 6.046875 -0.738281 6.257812 -0.441406 6.6875 -0.421875 C 6.71875 -0.421875 6.753906 -0.421875 6.796875 -0.421875 C 7.941406 -0.421875 9.066406 -1.800781 10.171875 -4.5625 C 9.953125 -5.039062 9.84375 -5.476562 9.84375 -5.875 C 9.84375 -6.269531 9.890625 -6.625 9.984375 -6.9375 C 10.253906 -7.863281 10.679688 -8.425781 11.265625 -8.625 C 11.378906 -8.675781 11.484375 -8.703125 11.578125 -8.703125 C 11.835938 -8.703125 11.96875 -8.566406 11.96875 -8.296875 Z M 11.96875 -8.296875 "/></g></g></g><g fill="#ad8d02" fill-opacity="1"><g transform="translate(129.323356, 31.202829)"><g><path d="M 8.53125 -7.796875 C 6.582031 -4.367188 5.609375 -2.132812 5.609375 -1.09375 C 5.609375 -0.675781 5.757812 -0.46875 6.0625 -0.46875 C 6.875 -0.46875 7.960938 -1.84375 9.328125 -4.59375 C 9.421875 -4.8125 9.515625 -4.894531 9.609375 -4.84375 C 9.703125 -4.800781 9.75 -4.738281 9.75 -4.65625 C 9.75 -4.582031 9.71875 -4.488281 9.65625 -4.375 C 8.8125 -2.675781 8.097656 -1.503906 7.515625 -0.859375 C 6.941406 -0.222656 6.363281 0.09375 5.78125 0.09375 C 5.207031 0.09375 4.769531 -0.128906 4.46875 -0.578125 C 4.3125 -0.773438 4.234375 -1.050781 4.234375 -1.40625 C 4.234375 -1.769531 4.3125 -2.203125 4.46875 -2.703125 C 4.625 -3.210938 5.0625 -4.039062 5.78125 -5.1875 C 5.957031 -5.46875 6.046875 -5.691406 6.046875 -5.859375 C 6.046875 -6.023438 5.910156 -6.109375 5.640625 -6.109375 C 5.367188 -6.109375 4.851562 -5.753906 4.09375 -5.046875 C 2.945312 -3.992188 1.84375 -2.421875 0.78125 -0.328125 C 0.6875 -0.171875 0.578125 -0.0703125 0.453125 -0.03125 C 0.335938 0.0078125 0.109375 0.0351562 -0.234375 0.046875 C -0.585938 0.0664062 -0.816406 0.109375 -0.921875 0.171875 C -0.671875 -0.335938 -0.171875 -1.378906 0.578125 -2.953125 C 1.898438 -5.722656 2.769531 -7.304688 3.1875 -7.703125 C 3.375 -7.890625 3.632812 -7.984375 3.96875 -7.984375 C 4.03125 -7.984375 4.191406 -7.957031 4.453125 -7.90625 C 4.710938 -7.863281 4.910156 -7.859375 5.046875 -7.890625 C 4.453125 -7.578125 3.492188 -6.085938 2.171875 -3.421875 C 2.910156 -4.335938 3.582031 -5.066406 4.1875 -5.609375 C 4.800781 -6.160156 5.535156 -6.671875 6.390625 -7.140625 C 7.253906 -7.609375 7.882812 -7.84375 8.28125 -7.84375 C 8.375 -7.84375 8.457031 -7.828125 8.53125 -7.796875 Z M 8.53125 -7.796875 "/></g></g></g><g clip-path="url(#id1)"><path fill="#508789" d="M 55.757812 28.929688 C 55.757812 28.894531 55.757812 28.859375 55.757812 28.820312 C 55.765625 27.371094 55.9375 25.921875 56.265625 24.511719 C 56.914062 21.75 58.179688 19.113281 59.9375 16.882812 C 59.96875 16.839844 60.03125 16.832031 60.070312 16.867188 C 60.113281 16.898438 60.121094 16.960938 60.089844 17.003906 C 56.46875 21.601562 55.136719 27.519531 56.433594 33.234375 C 57.570312 38.238281 60.574219 42.5 64.894531 45.230469 C 69.214844 47.964844 74.332031 48.835938 79.304688 47.691406 C 84.277344 46.550781 88.507812 43.523438 91.222656 39.175781 C 93.933594 34.824219 94.800781 29.671875 93.664062 24.667969 C 92.640625 20.144531 90.027344 16.152344 86.308594 13.421875 C 86.265625 13.390625 86.257812 13.328125 86.289062 13.285156 C 86.320312 13.242188 86.382812 13.230469 86.425781 13.261719 C 88.265625 14.613281 89.835938 16.261719 91.09375 18.160156 C 92.398438 20.125 93.328125 22.296875 93.855469 24.621094 C 94.433594 27.179688 94.5 29.773438 94.050781 32.332031 C 93.613281 34.804688 92.71875 37.140625 91.386719 39.277344 C 90.054688 41.414062 88.351562 43.242188 86.328125 44.710938 C 84.234375 46.230469 81.886719 47.300781 79.347656 47.882812 C 76.808594 48.46875 74.234375 48.535156 71.691406 48.082031 C 69.234375 47.640625 66.914062 46.738281 64.792969 45.398438 C 62.671875 44.054688 60.855469 42.34375 59.394531 40.308594 C 57.886719 38.199219 56.828125 35.832031 56.246094 33.277344 C 55.921875 31.847656 55.757812 30.386719 55.757812 28.929688 " fill-opacity="1" fill-rule="nonzero"/></g><path fill="#508789" d="M 60.617188 16.347656 C 62.417969 14.585938 64.4375 13.042969 66.652344 11.847656 C 68.859375 10.65625 71.28125 9.8125 73.785156 9.582031 C 75.273438 9.445312 76.761719 9.53125 78.21875 9.863281 C 78.394531 9.902344 78.46875 9.632812 78.292969 9.59375 C 75.730469 9.011719 73.066406 9.1875 70.550781 9.925781 C 68.089844 10.648438 65.785156 11.871094 63.710938 13.371094 C 62.546875 14.214844 61.449219 15.144531 60.421875 16.148438 C 60.292969 16.277344 60.488281 16.472656 60.617188 16.347656 " fill-opacity="1" fill-rule="nonzero"/><path fill="#508789" d="M 78.070312 9.757812 C 78.871094 10.542969 79.707031 11.386719 80.730469 11.871094 C 81.785156 12.375 82.976562 12.429688 84.117188 12.59375 C 84.773438 12.6875 85.433594 12.820312 86.042969 13.097656 C 86.164062 13.152344 86.269531 12.980469 86.148438 12.917969 C 85.039062 12.324219 84.207031 11.359375 83.257812 10.550781 C 82.808594 10.171875 82.324219 9.863281 81.765625 9.671875 C 81.214844 9.480469 80.625 9.40625 80.042969 9.402344 C 79.359375 9.394531 78.675781 9.484375 78.003906 9.601562 C 77.871094 9.625 77.925781 9.828125 78.058594 9.804688 C 79.203125 9.605469 80.414062 9.480469 81.542969 9.820312 C 82.132812 9.996094 82.644531 10.304688 83.113281 10.699219 C 83.5625 11.082031 83.984375 11.5 84.421875 11.898438 C 84.921875 12.351562 85.449219 12.777344 86.042969 13.097656 C 86.078125 13.039062 86.113281 12.976562 86.148438 12.917969 C 85.085938 12.429688 83.914062 12.375 82.777344 12.207031 C 82.207031 12.125 81.640625 12.015625 81.105469 11.808594 C 80.570312 11.597656 80.089844 11.273438 79.644531 10.914062 C 79.144531 10.511719 78.679688 10.0625 78.21875 9.609375 C 78.125 9.515625 77.976562 9.664062 78.070312 9.757812 " fill-opacity="1" fill-rule="nonzero"/><path fill="#508789" d="M 73.886719 9.566406 C 75.015625 9.46875 76.074219 9.097656 77.046875 8.519531 C 77.546875 8.222656 78.039062 7.910156 78.566406 7.664062 C 79.09375 7.421875 79.648438 7.238281 80.210938 7.113281 C 80.84375 6.972656 81.488281 6.90625 82.132812 6.917969 C 82.25 6.917969 82.277344 6.738281 82.160156 6.710938 C 81.40625 6.546875 80.652344 6.375 79.890625 6.238281 C 79.179688 6.113281 78.445312 6.023438 77.726562 6.164062 C 76.566406 6.390625 75.726562 7.222656 74.9375 8.046875 C 74.476562 8.527344 74.011719 9.007812 73.464844 9.390625 C 73.355469 9.464844 73.457031 9.648438 73.570312 9.570312 C 74.492188 8.929688 75.164062 8.015625 76.011719 7.285156 C 76.433594 6.921875 76.910156 6.617188 77.441406 6.453125 C 78.152344 6.234375 78.90625 6.285156 79.632812 6.40625 C 80.460938 6.542969 81.285156 6.734375 82.105469 6.914062 C 82.113281 6.84375 82.125 6.777344 82.132812 6.707031 C 81.011719 6.691406 79.890625 6.894531 78.851562 7.316406 C 78.324219 7.527344 77.832031 7.800781 77.34375 8.097656 C 76.835938 8.40625 76.324219 8.710938 75.765625 8.925781 C 75.164062 9.15625 74.527344 9.300781 73.886719 9.355469 C 73.753906 9.367188 73.75 9.578125 73.886719 9.566406 " fill-opacity="1" fill-rule="nonzero"/><path fill="#508789" d="M 71.714844 9.921875 C 72.480469 9.824219 73.199219 10.1875 73.808594 10.628906 C 74.394531 11.054688 74.871094 11.59375 75.398438 12.082031 C 75.894531 12.546875 76.449219 12.902344 77.113281 13.074219 C 77.785156 13.246094 78.488281 13.261719 79.179688 13.300781 C 79.949219 13.347656 80.753906 13.402344 81.449219 13.765625 C 81.550781 13.820312 81.671875 13.683594 81.574219 13.601562 C 81.015625 13.128906 80.445312 12.644531 79.777344 12.328125 C 79.109375 12.011719 78.363281 11.921875 77.726562 11.539062 C 76.699219 10.925781 75.882812 9.871094 74.652344 9.652344 C 73.800781 9.503906 72.921875 9.828125 72.082031 9.585938 C 71.953125 9.546875 71.898438 9.75 72.027344 9.789062 C 72.757812 10 73.511719 9.792969 74.253906 9.820312 C 74.894531 9.847656 75.457031 10.121094 75.96875 10.488281 C 76.464844 10.839844 76.914062 11.257812 77.417969 11.59375 C 77.675781 11.761719 77.949219 11.910156 78.238281 12.019531 C 78.601562 12.15625 78.976562 12.242188 79.339844 12.371094 C 80.132812 12.660156 80.792969 13.207031 81.429688 13.75 C 81.46875 13.695312 81.511719 13.640625 81.554688 13.585938 C 80.292969 12.929688 78.808594 13.191406 77.457031 12.933594 C 77.101562 12.867188 76.753906 12.765625 76.4375 12.59375 C 76.121094 12.425781 75.839844 12.207031 75.578125 11.964844 C 75.058594 11.488281 74.589844 10.960938 74.023438 10.53125 C 73.367188 10.03125 72.5625 9.605469 71.714844 9.710938 C 71.582031 9.726562 71.582031 9.9375 71.714844 9.921875 " fill-opacity="1" fill-rule="nonzero"/><g clip-path="url(#id2)"><path fill="#508789" d="M 68.707031 10.761719 C 69.214844 10.335938 69.664062 9.839844 70.039062 9.292969 C 70.394531 8.769531 70.664062 8.203125 70.902344 7.617188 C 71.128906 7.058594 71.34375 6.488281 71.664062 5.976562 C 72.019531 5.417969 72.507812 5.019531 73.117188 4.773438 C 73.476562 4.628906 73.847656 4.523438 74.214844 4.410156 C 74.628906 4.285156 75.042969 4.160156 75.457031 4.035156 C 75.421875 3.976562 75.386719 3.917969 75.355469 3.863281 C 74.335938 4.660156 73.277344 5.496094 72.648438 6.652344 C 72.320312 7.253906 72.15625 7.929688 71.804688 8.515625 C 71.488281 9.039062 71.007812 9.4375 70.496094 9.75 C 69.90625 10.113281 69.261719 10.375 68.609375 10.585938 C 68.480469 10.628906 68.535156 10.828125 68.664062 10.789062 C 69.785156 10.425781 71.003906 9.902344 71.753906 8.949219 C 72.179688 8.410156 72.367188 7.753906 72.640625 7.136719 C 72.917969 6.515625 73.320312 5.964844 73.792969 5.480469 C 74.316406 4.9375 74.910156 4.472656 75.5 4.007812 C 75.585938 3.941406 75.492188 3.804688 75.398438 3.835938 C 74.679688 4.050781 73.945312 4.242188 73.238281 4.503906 C 72.644531 4.722656 72.113281 5.042969 71.714844 5.546875 C 71.34375 6.019531 71.101562 6.570312 70.878906 7.125 C 70.632812 7.722656 70.398438 8.320312 70.0625 8.875 C 69.660156 9.53125 69.148438 10.117188 68.5625 10.613281 C 68.460938 10.699219 68.605469 10.847656 68.707031 10.761719 " fill-opacity="1" fill-rule="nonzero"/></g><path fill="#508789" d="M 67.089844 11.632812 C 67.675781 11.492188 68.292969 11.519531 68.859375 11.730469 C 69.414062 11.9375 69.867188 12.335938 70.382812 12.617188 C 71.355469 13.148438 72.496094 13.203125 73.480469 13.691406 C 74.082031 13.988281 74.53125 14.46875 74.96875 14.96875 C 75.027344 15.035156 75.152344 14.980469 75.148438 14.894531 C 75.117188 14.304688 75.007812 13.707031 74.738281 13.179688 C 74.457031 12.640625 73.996094 12.238281 73.445312 11.988281 C 72.855469 11.722656 72.214844 11.625 71.574219 11.566406 C 71.203125 11.535156 70.832031 11.511719 70.464844 11.476562 C 70.097656 11.441406 69.734375 11.382812 69.371094 11.320312 C 68.609375 11.1875 67.820312 11.058594 67.066406 11.304688 C 66.941406 11.347656 66.996094 11.550781 67.121094 11.507812 C 67.773438 11.292969 68.453125 11.375 69.113281 11.484375 C 69.78125 11.597656 70.4375 11.6875 71.113281 11.738281 C 72.285156 11.828125 73.699219 11.964844 74.414062 13.042969 C 74.773438 13.585938 74.90625 14.25 74.9375 14.894531 C 74.996094 14.867188 75.058594 14.84375 75.117188 14.820312 C 74.71875 14.367188 74.308594 13.914062 73.78125 13.613281 C 73.289062 13.332031 72.742188 13.175781 72.199219 13.03125 C 71.644531 12.882812 71.085938 12.746094 70.574219 12.480469 C 70.042969 12.207031 69.582031 11.800781 69.027344 11.570312 C 68.398438 11.3125 67.691406 11.269531 67.035156 11.433594 C 66.902344 11.464844 66.960938 11.667969 67.089844 11.632812 " fill-opacity="1" fill-rule="nonzero"/><path fill="#508789" d="M 62.980469 14.214844 C 63.800781 13.367188 64.449219 12.367188 64.890625 11.269531 C 64.9375 11.144531 64.738281 11.089844 64.6875 11.214844 C 64.261719 12.273438 63.628906 13.246094 62.835938 14.066406 C 62.742188 14.160156 62.886719 14.308594 62.980469 14.214844 " fill-opacity="1" fill-rule="nonzero"/><path fill="#508789" d="M 64.835938 11.359375 C 65.019531 10.824219 65.164062 10.277344 65.394531 9.761719 C 65.613281 9.265625 65.898438 8.796875 66.265625 8.398438 C 66.636719 7.992188 67.074219 7.699219 67.550781 7.4375 C 68.046875 7.167969 68.515625 6.84375 68.875 6.394531 C 69.25 5.925781 69.492188 5.335938 69.363281 4.730469 C 69.300781 4.757812 69.238281 4.785156 69.171875 4.8125 C 69.75 5.835938 69.394531 7.132812 68.632812 7.953125 C 68.253906 8.355469 67.792969 8.667969 67.304688 8.925781 C 67.039062 9.0625 66.757812 9.179688 66.496094 9.324219 C 66.246094 9.464844 66.019531 9.636719 65.8125 9.832031 C 65.34375 10.285156 64.988281 10.84375 64.640625 11.390625 C 64.570312 11.503906 64.75 11.609375 64.820312 11.496094 C 65.148438 10.980469 65.480469 10.460938 65.914062 10.027344 C 66.132812 9.8125 66.375 9.628906 66.644531 9.480469 C 66.925781 9.328125 67.222656 9.207031 67.503906 9.054688 C 68.492188 8.515625 69.367188 7.6875 69.601562 6.542969 C 69.726562 5.921875 69.667969 5.261719 69.351562 4.707031 C 69.292969 4.601562 69.140625 4.671875 69.164062 4.785156 C 69.285156 5.351562 69.019531 5.914062 68.65625 6.332031 C 68.265625 6.78125 67.78125 7.070312 67.269531 7.355469 C 66.359375 7.863281 65.679688 8.640625 65.242188 9.589844 C 64.988281 10.140625 64.835938 10.730469 64.632812 11.300781 C 64.589844 11.429688 64.789062 11.484375 64.835938 11.359375 " fill-opacity="1" fill-rule="nonzero"/><path fill="#508789" d="M 64.933594 11.050781 C 65.375 10.199219 65.957031 9.425781 66.660156 8.773438 C 67.011719 8.445312 67.398438 8.160156 67.796875 7.886719 C 68.1875 7.617188 68.578125 7.34375 68.890625 6.980469 C 68.945312 6.914062 68.847656 6.8125 68.789062 6.882812 C 68.464844 7.261719 68.054688 7.539062 67.648438 7.820312 C 67.253906 8.089844 66.875 8.378906 66.527344 8.707031 C 65.832031 9.359375 65.253906 10.132812 64.816406 10.980469 C 64.773438 11.058594 64.894531 11.132812 64.933594 11.050781 " fill-opacity="1" fill-rule="nonzero"/><path fill="#508789" d="M 69.054688 10.46875 C 69.863281 9.964844 70.558594 9.289062 71.078125 8.484375 C 71.609375 7.660156 71.941406 6.703125 72.636719 5.996094 C 72.699219 5.929688 72.601562 5.832031 72.539062 5.894531 C 71.867188 6.582031 71.527344 7.492188 71.03125 8.296875 C 70.515625 9.128906 69.8125 9.832031 68.984375 10.347656 C 68.910156 10.394531 68.980469 10.515625 69.054688 10.46875 " fill-opacity="1" fill-rule="nonzero"/><path fill="#508789" d="M 73.847656 9.332031 C 74.261719 9.152344 74.683594 8.96875 75.058594 8.714844 C 75.433594 8.460938 75.75 8.136719 76.113281 7.867188 C 76.816406 7.347656 77.632812 7.007812 78.492188 6.867188 C 78.578125 6.851562 78.542969 6.71875 78.453125 6.734375 C 77.601562 6.875 76.785156 7.210938 76.082031 7.71875 C 75.71875 7.984375 75.398438 8.304688 75.03125 8.5625 C 74.644531 8.835938 74.207031 9.023438 73.777344 9.210938 C 73.695312 9.246094 73.765625 9.367188 73.847656 9.332031 " fill-opacity="1" fill-rule="nonzero"/><path fill="#508789" d="M 78.316406 9.761719 C 78.75 9.933594 79.183594 10.109375 79.617188 10.28125 C 80.039062 10.449219 80.457031 10.636719 80.890625 10.769531 C 81.089844 10.832031 81.292969 10.878906 81.5 10.902344 C 81.726562 10.925781 81.953125 10.929688 82.175781 10.980469 C 82.574219 11.070312 82.9375 11.269531 83.226562 11.558594 C 83.289062 11.621094 83.386719 11.523438 83.324219 11.460938 C 83.050781 11.1875 82.714844 10.984375 82.34375 10.878906 C 81.914062 10.753906 81.460938 10.789062 81.027344 10.667969 C 80.585938 10.539062 80.15625 10.347656 79.730469 10.175781 C 79.269531 9.992188 78.8125 9.8125 78.351562 9.628906 C 78.269531 9.59375 78.234375 9.730469 78.316406 9.761719 " fill-opacity="1" fill-rule="nonzero"/><path fill="#508789" d="M 72.007812 9.902344 C 72.519531 9.9375 73.03125 9.96875 73.527344 10.101562 C 73.960938 10.214844 74.359375 10.421875 74.734375 10.675781 C 75.472656 11.164062 76.125 11.761719 76.949219 12.109375 C 77.429688 12.316406 77.9375 12.449219 78.457031 12.515625 C 78.546875 12.527344 78.542969 12.386719 78.457031 12.375 C 77.507812 12.253906 76.636719 11.882812 75.859375 11.324219 C 75.160156 10.820312 74.5 10.242188 73.660156 9.992188 C 73.125 9.835938 72.5625 9.800781 72.007812 9.761719 C 71.921875 9.757812 71.921875 9.894531 72.007812 9.902344 " fill-opacity="1" fill-rule="nonzero"/><path fill="#508789" d="M 67.800781 11.429688 C 68.652344 11.421875 69.472656 11.660156 70.277344 11.914062 C 70.679688 12.042969 71.078125 12.175781 71.484375 12.285156 C 71.886719 12.394531 72.300781 12.453125 72.707031 12.550781 C 72.933594 12.609375 73.15625 12.6875 73.355469 12.816406 C 73.5625 12.949219 73.746094 13.117188 73.929688 13.285156 C 73.992188 13.347656 74.09375 13.25 74.027344 13.1875 C 73.730469 12.914062 73.429688 12.648438 73.042969 12.507812 C 72.632812 12.355469 72.183594 12.316406 71.761719 12.210938 C 70.910156 12.003906 70.097656 11.675781 69.25 11.472656 C 68.773438 11.359375 68.289062 11.285156 67.800781 11.292969 C 67.710938 11.292969 67.710938 11.433594 67.800781 11.429688 " fill-opacity="1" fill-rule="nonzero"/><path fill="#508789" d="M 64.199219 13.355469 C 64.5 13.238281 64.816406 13.117188 65.144531 13.128906 C 65.292969 13.132812 65.4375 13.171875 65.585938 13.164062 C 65.722656 13.15625 65.851562 13.117188 65.972656 13.054688 C 66.035156 13.019531 66.003906 12.925781 65.9375 12.925781 C 65.640625 12.914062 65.355469 12.757812 65.058594 12.792969 C 64.773438 12.824219 64.523438 12.984375 64.292969 13.140625 C 64.21875 13.1875 64.285156 13.308594 64.363281 13.257812 C 64.59375 13.105469 64.851562 12.933594 65.136719 12.925781 C 65.28125 12.921875 65.414062 12.976562 65.550781 13.011719 C 65.679688 13.042969 65.808594 13.058594 65.9375 13.0625 C 65.925781 13.019531 65.914062 12.976562 65.902344 12.933594 C 65.597656 13.089844 65.308594 12.96875 64.992188 12.992188 C 64.703125 13.015625 64.429688 13.113281 64.164062 13.222656 C 64.082031 13.253906 64.117188 13.390625 64.199219 13.355469 " fill-opacity="1" fill-rule="nonzero"/><g clip-path="url(#id3)"><path fill="#75b2b4" d="M 7.992188 5.566406 L 1.660156 5.566406 L 1.660156 17.785156 L 0.753906 17.785156 L 0.753906 4.660156 L 8.902344 4.660156 Z M 7.992188 5.566406 " fill-opacity="1" fill-rule="nonzero"/></g><g clip-path="url(#id4)"><path stroke-linecap="butt" transform="matrix(0.00266743, 0, 0, 0.00266743, 0.754648, 0.0460521)" fill="none" stroke-linejoin="miter" d="M 2713.304881 2069.543614 L 339.469005 2069.543614 L 339.469005 6650.270708 L -0.278017 6650.270708 L -0.278017 1729.796591 L 3054.51633 1729.796591 Z M 2713.304881 2069.543614 " stroke="#000000" stroke-width="35.278" stroke-opacity="1" stroke-miterlimit="4"/></g><g clip-path="url(#id5)"><path fill="#75b2b4" d="M 18.492188 0.046875 L 18.492188 0.949219 L 6.277344 0.949219 L 6.277344 7.285156 L 5.371094 8.191406 L 5.371094 0.046875 Z M 18.492188 0.046875 " fill-opacity="1" fill-rule="nonzero"/></g><g clip-path="url(#id6)"><path stroke-linecap="butt" transform="matrix(0.00266743, 0, 0, 0.00266743, 0.754648, 0.0460521)" fill="none" stroke-linejoin="miter" d="M 6649.684174 0.308516 L 6649.684174 338.591112 L 2070.421507 338.591112 L 2070.421507 2713.891415 L 1730.674484 3053.638437 L 1730.674484 0.308516 Z M 6649.684174 0.308516 " stroke="#000000" stroke-width="35.278" stroke-opacity="1" stroke-miterlimit="4"/></g><g clip-path="url(#id7)"><path fill="#dbab04" d="M 3.46875 12.085938 L 3.46875 3.664062 L 0.753906 3.664062 L 0.753906 0.046875 L 4.375 0.046875 L 4.375 2.761719 L 12.792969 2.761719 L 11.886719 3.664062 L 4.375 3.664062 L 4.375 11.175781 Z M 3.46875 2.761719 L 3.46875 0.949219 L 1.660156 0.949219 L 1.660156 2.761719 Z M 3.46875 2.761719 " fill-opacity="1" fill-rule="nonzero"/></g><g clip-path="url(#id8)"><path stroke-linecap="butt" transform="matrix(0.00266743, 0, 0, 0.00266743, 0.754648, 0.0460521)" fill="none" stroke-linejoin="miter" d="M 1017.498623 4513.671977 L 1017.498623 1356.367752 L -0.278017 1356.367752 L -0.278017 0.308516 L 1357.245645 0.308516 L 1357.245645 1018.085157 L 4513.085443 1018.085157 L 4173.338421 1356.367752 L 1357.245645 1356.367752 L 1357.245645 4172.460528 Z M 1017.498623 1018.085157 L 1017.498623 338.591112 L 339.469005 338.591112 L 339.469005 1018.085157 Z M 1017.498623 1018.085157 " stroke="#000000" stroke-width="35.278" stroke-opacity="1" stroke-miterlimit="4"/></g><g clip-path="url(#id9)"><path stroke-linecap="butt" transform="matrix(0, -0.00266743, 0.00266743, 0, 1.038083, 51.750809)" fill-opacity="1" fill="#75b2b4" fill-rule="nonzero" stroke-linejoin="miter" d="M 2713.886255 2069.602323 L 338.585952 2069.602323 L 338.585952 6650.329417 L 0.303356 6650.329417 L 0.303356 1729.855301 L 3053.633277 1729.855301 Z M 2713.886255 2069.602323 " stroke="#000000" stroke-width="35.278" stroke-opacity="1" stroke-miterlimit="4"/></g><path fill="#75b2b4" d="M 1.039062 34.011719 L 1.941406 34.011719 L 1.941406 46.230469 L 8.277344 46.230469 L 9.183594 47.136719 L 1.039062 47.136719 Z M 1.039062 34.011719 " fill-opacity="1" fill-rule="nonzero"/><g clip-path="url(#id10)"><path stroke-linecap="butt" transform="matrix(0, -0.00266743, 0.00266743, 0, 1.038083, 51.750809)" fill="none" stroke-linejoin="miter" d="M 6650.265548 0.367226 L 6650.265548 338.649821 L 2069.538454 338.649821 L 2069.538454 2713.950124 L 1729.791431 3053.697146 L 1729.791431 0.367226 Z M 6650.265548 0.367226 " stroke="#000000" stroke-width="35.278" stroke-opacity="1" stroke-miterlimit="4"/></g><g clip-path="url(#id11)"><path fill="#dbab04" d="M 13.078125 49.035156 L 4.65625 49.035156 L 4.65625 51.75 L 1.039062 51.75 L 1.039062 48.132812 L 3.753906 48.132812 L 3.753906 39.710938 L 4.65625 40.621094 L 4.65625 48.132812 L 12.167969 48.132812 Z M 3.753906 49.035156 L 1.941406 49.035156 L 1.941406 50.847656 L 3.753906 50.847656 Z M 3.753906 49.035156 " fill-opacity="1" fill-rule="nonzero"/></g><g clip-path="url(#id12)"><path stroke-linecap="butt" transform="matrix(0, -0.00266743, 0.00266743, 0, 1.038083, 51.750809)" fill="none" stroke-linejoin="miter" d="M 1018.079997 4513.730686 L 1018.079997 1356.426461 L 0.303356 1356.426461 L 0.303356 0.367226 L 1356.362592 0.367226 L 1356.362592 1018.143866 L 4513.666817 1018.143866 L 4172.455368 1356.426461 L 1356.362592 1356.426461 L 1356.362592 4172.519237 Z M 1018.079997 1018.143866 L 1018.079997 338.649821 L 338.585952 338.649821 L 338.585952 1018.143866 Z M 1018.079997 1018.143866 " stroke="#000000" stroke-width="35.278" stroke-opacity="1" stroke-miterlimit="4"/></g><g clip-path="url(#id13)"><path fill="#75b2b4" d="M 142.089844 46.296875 L 148.425781 46.296875 L 148.425781 34.078125 L 149.332031 34.078125 L 149.332031 47.203125 L 141.183594 47.203125 Z M 142.089844 46.296875 " fill-opacity="1" fill-rule="nonzero"/></g><g clip-path="url(#id14)"><path stroke-linecap="butt" transform="matrix(-0.00266743, -0, 0, -0.00266743, 149.331027, 51.817853)" fill="none" stroke-linejoin="miter" d="M 2714.670548 2069.777332 L 339.370436 2069.777332 L 339.370436 6650.504058 L -0.376559 6650.504058 L -0.376559 1730.030336 L 3054.417543 1730.030336 Z M 2714.670548 2069.777332 " stroke="#000000" stroke-width="35.278" stroke-opacity="1" stroke-miterlimit="4"/></g><g clip-path="url(#id15)"><path fill="#75b2b4" d="M 131.59375 51.816406 L 131.59375 50.914062 L 143.808594 50.914062 L 143.808594 44.578125 L 144.714844 43.671875 L 144.714844 51.816406 Z M 131.59375 51.816406 " fill-opacity="1" fill-rule="nonzero"/></g><g clip-path="url(#id16)"><path stroke-linecap="butt" transform="matrix(-0.00266743, -0, 0, -0.00266743, 149.331027, 51.817853)" fill="none" stroke-linejoin="miter" d="M 6649.585099 0.5424 L 6649.585099 338.824969 L 2070.322799 338.824969 L 2070.322799 2714.125081 L 1730.575804 3053.872076 L 1730.575804 0.5424 Z M 6649.585099 0.5424 " stroke="#000000" stroke-width="35.278" stroke-opacity="1" stroke-miterlimit="4"/></g><g clip-path="url(#id17)"><path fill="#dbab04" d="M 146.617188 39.78125 L 146.617188 48.199219 L 149.332031 48.199219 L 149.332031 51.816406 L 145.710938 51.816406 L 145.710938 49.101562 L 137.292969 49.101562 L 138.199219 48.199219 L 145.710938 48.199219 L 145.710938 40.6875 Z M 146.617188 49.101562 L 146.617188 50.914062 L 148.425781 50.914062 L 148.425781 49.101562 Z M 146.617188 49.101562 " fill-opacity="1" fill-rule="nonzero"/></g><g clip-path="url(#id18)"><path stroke-linecap="butt" transform="matrix(-0.00266743, -0, 0, -0.00266743, 149.331027, 51.817853)" fill="none" stroke-linejoin="miter" d="M 1017.399999 4512.441072 L 1017.399999 1356.601527 L -0.376559 1356.601527 L -0.376559 0.5424 L 1357.146994 0.5424 L 1357.146994 1018.318959 L 4512.986539 1018.318959 L 4173.239544 1356.601527 L 1357.146994 1356.601527 L 1357.146994 4172.694077 Z M 1017.399999 1018.318959 L 1017.399999 338.824969 L 339.370436 338.824969 L 339.370436 1018.318959 Z M 1017.399999 1018.318959 " stroke="#000000" stroke-width="35.278" stroke-opacity="1" stroke-miterlimit="4"/></g><g clip-path="url(#id19)"><path fill="#75b2b4" d="M 143.566406 7.8125 L 143.566406 1.210938 L 130.839844 1.210938 L 130.839844 0.269531 L 144.511719 0.269531 L 144.511719 8.757812 Z M 143.566406 7.8125 " fill-opacity="1" fill-rule="nonzero"/></g><g clip-path="url(#id20)"><path stroke-linecap="butt" transform="matrix(0, 0.00277857, -0.00277857, 0, 149.318926, 0.27074)" fill="none" stroke-linejoin="miter" d="M 2714.260685 2070.317687 L 338.374626 2070.317687 L 338.374626 6650.576136 L -0.435161 6650.576136 L -0.435161 1730.10205 L 3054.476322 1730.10205 Z M 2714.260685 2070.317687 " stroke="#000000" stroke-width="35.278" stroke-opacity="1" stroke-miterlimit="4"/></g><g clip-path="url(#id21)"><path fill="#75b2b4" d="M 149.320312 18.75 L 148.378906 18.75 L 148.378906 6.023438 L 141.777344 6.023438 L 140.832031 5.078125 L 149.320312 5.078125 Z M 149.320312 18.75 " fill-opacity="1" fill-rule="nonzero"/></g><g clip-path="url(#id22)"><path stroke-linecap="butt" transform="matrix(0, 0.00277857, -0.00277857, 0, 149.318926, 0.27074)" fill="none" stroke-linejoin="miter" d="M 6650.639954 -0.498979 L 6650.639954 338.310808 L 2070.381504 338.310808 L 2070.381504 2714.196867 L 1730.165868 3054.412504 L 1730.165868 -0.498979 Z M 6650.639954 -0.498979 " stroke="#000000" stroke-width="35.278" stroke-opacity="1" stroke-miterlimit="4"/></g><g clip-path="url(#id23)"><path fill="#dbab04" d="M 136.777344 3.097656 L 145.546875 3.097656 L 145.546875 0.269531 L 149.320312 0.269531 L 149.320312 4.042969 L 146.492188 4.042969 L 146.492188 12.808594 L 145.546875 11.867188 L 145.546875 4.042969 L 137.722656 4.042969 Z M 146.492188 3.097656 L 148.378906 3.097656 L 148.378906 1.210938 L 146.492188 1.210938 Z M 146.492188 3.097656 " fill-opacity="1" fill-rule="nonzero"/></g><g clip-path="url(#id24)"><path stroke-linecap="butt" transform="matrix(0, 0.00277857, -0.00277857, 0, 149.318926, 0.27074)" fill="none" stroke-linejoin="miter" d="M 1017.40005 4513.684533 L 1017.40005 1357.551869 L -0.435161 1357.551869 L -0.435161 -0.498979 L 1357.615687 -0.498979 L 1357.615687 1017.336232 L 4512.342501 1017.336232 L 4173.532714 1357.551869 L 1357.615687 1357.551869 L 1357.615687 4173.468896 Z M 1017.40005 1017.336232 L 1017.40005 338.310808 L 338.374626 338.310808 L 338.374626 1017.336232 Z M 1017.40005 1017.336232 " stroke="#000000" stroke-width="35.278" stroke-opacity="1" stroke-miterlimit="4"/></g></svg>