<svg xmlns="http://www.w3.org/2000/svg" xmlns:xlink="http://www.w3.org/1999/xlink" width="200" zoomAndPan="magnify" viewBox="0 0 150 52.499999" height="70" preserveAspectRatio="xMidYMid meet" version="1.0"><defs><g/><clipPath id="id1"><path d="M 55.757812 13.226562 L 94.34375 13.226562 L 94.34375 48.378906 L 55.757812 48.378906 Z M 55.757812 13.226562 " clip-rule="nonzero"/></clipPath><clipPath id="id2"><path d="M 68 3.804688 L 76 3.804688 L 76 11 L 68 11 Z M 68 3.804688 " clip-rule="nonzero"/></clipPath><clipPath id="id3"><path d="M 0.707031 4 L 9 4 L 9 17.832031 L 0.707031 17.832031 Z M 0.707031 4 " clip-rule="nonzero"/></clipPath><clipPath id="id4"><path d="M 0.707031 4 L 10 4 L 10 17.832031 L 0.707031 17.832031 Z M 0.707031 4 " clip-rule="nonzero"/></clipPath><clipPath id="id5"><path d="M 5 0 L 18.539062 0 L 18.539062 9 L 5 9 Z M 5 0 " clip-rule="nonzero"/></clipPath><clipPath id="id6"><path d="M 4 0 L 18.539062 0 L 18.539062 9 L 4 9 Z M 4 0 " clip-rule="nonzero"/></clipPath><clipPath id="id7"><path d="M 0.707031 0 L 13 0 L 13 13 L 0.707031 13 Z M 0.707031 0 " clip-rule="nonzero"/></clipPath><clipPath id="id8"><path d="M 0.707031 0 L 14 0 L 14 13 L 0.707031 13 Z M 0.707031 0 " clip-rule="nonzero"/></clipPath><clipPath id="id9"><path d="M 5 43 L 18.820312 43 L 18.820312 51.796875 L 5 51.796875 Z M 5 43 " clip-rule="nonzero"/></clipPath><clipPath id="id10"><path d="M 0.992188 33.96875 L 10 33.96875 L 10 48 L 0.992188 48 Z M 0.992188 33.96875 " clip-rule="nonzero"/></clipPath><clipPath id="id11"><path d="M 1 39 L 14 39 L 14 51.796875 L 1 51.796875 Z M 1 39 " clip-rule="nonzero"/></clipPath><clipPath id="id12"><path d="M 0.992188 39 L 14 39 L 14 51.796875 L 0.992188 51.796875 Z M 0.992188 39 " clip-rule="nonzero"/></clipPath><clipPath id="id13"><path d="M 141 34.035156 L 149.292969 34.035156 L 149.292969 48 L 141 48 Z M 141 34.035156 " clip-rule="nonzero"/></clipPath><clipPath id="id14"><path d="M 140 34.035156 L 149.292969 34.035156 L 149.292969 48 L 140 48 Z M 140 34.035156 " clip-rule="nonzero"/></clipPath><clipPath id="id15"><path d="M 131.546875 43 L 145 43 L 145 51.863281 L 131.546875 51.863281 Z M 131.546875 43 " clip-rule="nonzero"/></clipPath><clipPath id="id16"><path d="M 131.546875 43 L 146 43 L 146 51.863281 L 131.546875 51.863281 Z M 131.546875 43 " clip-rule="nonzero"/></clipPath><clipPath id="id17"><path d="M 137 39 L 149.292969 39 L 149.292969 51.863281 L 137 51.863281 Z M 137 39 " clip-rule="nonzero"/></clipPath><clipPath id="id18"><path d="M 136 39 L 149.292969 39 L 149.292969 51.863281 L 136 51.863281 Z M 136 39 " clip-rule="nonzero"/></clipPath><clipPath id="id19"><path d="M 130.792969 0.222656 L 145 0.222656 L 145 9 L 130.792969 9 Z M 130.792969 0.222656 " clip-rule="nonzero"/></clipPath><clipPath id="id20"><path d="M 130.792969 0.222656 L 146 0.222656 L 146 10 L 130.792969 10 Z M 130.792969 0.222656 " clip-rule="nonzero"/></clipPath><clipPath id="id21"><path d="M 140 5 L 149.292969 5 L 149.292969 18.792969 L 140 18.792969 Z M 140 5 " clip-rule="nonzero"/></clipPath><clipPath id="id22"><path d="M 140 4 L 149.292969 4 L 149.292969 18.792969 L 140 18.792969 Z M 140 4 " clip-rule="nonzero"/></clipPath><clipPath id="id23"><path d="M 136 0.222656 L 149.292969 0.222656 L 149.292969 13 L 136 13 Z M 136 0.222656 " clip-rule="nonzero"/></clipPath><clipPath id="id24"><path d="M 136 0.222656 L 149.292969 0.222656 L 149.292969 14 L 136 14 Z M 136 0.222656 " clip-rule="nonzero"/></clipPath></defs><g fill="#ad8d02" fill-opacity="1"><g transform="translate(45.077357, 34.069967)"><g><path d="M 22.953125 -16.765625 C 24.640625 -15.765625 25.484375 -14.5625 25.484375 -13.15625 C 25.484375 -12.039062 24.863281 -10.847656 23.625 -9.578125 C 22.90625 -8.835938 22.054688 -8.195312 21.078125 -7.65625 C 20.109375 -7.113281 19.148438 -6.726562 18.203125 -6.5 C 16.554688 -6.09375 15.066406 -5.890625 13.734375 -5.890625 C 13.441406 -5.890625 13.15625 -5.898438 12.875 -5.921875 C 11.71875 -4.222656 10.53125 -2.78125 9.3125 -1.59375 C 7.519531 0.0820312 5.546875 0.921875 3.390625 0.921875 C 1.328125 0.921875 0.0546875 0.359375 -0.421875 -0.765625 C -0.535156 -1.035156 -0.59375 -1.347656 -0.59375 -1.703125 C -0.59375 -2.054688 -0.410156 -2.441406 -0.046875 -2.859375 C 0.523438 -3.503906 1.328125 -3.828125 2.359375 -3.828125 C 3.023438 -3.828125 3.722656 -3.707031 4.453125 -3.46875 C 4.722656 -3.375 4.816406 -3.269531 4.734375 -3.15625 C 4.671875 -3.09375 4.460938 -3.125 4.109375 -3.25 C 3.765625 -3.382812 3.332031 -3.453125 2.8125 -3.453125 C 2.300781 -3.453125 1.851562 -3.253906 1.46875 -2.859375 C 1.082031 -2.472656 0.890625 -2.054688 0.890625 -1.609375 C 0.890625 -1.441406 0.921875 -1.269531 0.984375 -1.09375 C 1.234375 -0.238281 1.953125 0.1875 3.140625 0.1875 C 4.921875 0.1875 6.664062 -0.632812 8.375 -2.28125 C 9.59375 -3.46875 10.96875 -5.609375 12.5 -8.703125 C 13.082031 -9.859375 13.804688 -11.144531 14.671875 -12.5625 C 15.546875 -13.988281 16.4375 -15.207031 17.34375 -16.21875 C 17.457031 -16.332031 17.597656 -16.472656 17.765625 -16.640625 C 18.097656 -17.023438 18.378906 -17.328125 18.609375 -17.546875 C 17.460938 -17.703125 16.238281 -17.78125 14.9375 -17.78125 C 13.632812 -17.78125 12.40625 -17.671875 11.25 -17.453125 C 10.09375 -17.242188 9.085938 -16.992188 8.234375 -16.703125 C 7.378906 -16.410156 6.507812 -16.03125 5.625 -15.5625 C 4.75 -15.09375 4.007812 -14.503906 3.40625 -13.796875 C 2.613281 -12.890625 2.21875 -11.945312 2.21875 -10.96875 C 2.21875 -10.363281 2.429688 -9.800781 2.859375 -9.28125 C 3.316406 -8.71875 3.90625 -8.4375 4.625 -8.4375 C 5.351562 -8.4375 6.050781 -8.710938 6.71875 -9.265625 C 7.394531 -9.828125 7.878906 -10.507812 8.171875 -11.3125 C 8.179688 -11.425781 8.210938 -11.503906 8.265625 -11.546875 C 8.328125 -11.585938 8.378906 -11.582031 8.421875 -11.53125 C 8.472656 -11.488281 8.5 -11.410156 8.5 -11.296875 C 8.476562 -10.265625 8.078125 -9.453125 7.296875 -8.859375 C 6.515625 -8.265625 5.644531 -7.96875 4.6875 -7.96875 C 3.613281 -7.96875 2.734375 -8.285156 2.046875 -8.921875 C 1.367188 -9.554688 1.03125 -10.375 1.03125 -11.375 C 1.03125 -12.289062 1.273438 -13.113281 1.765625 -13.84375 C 2.253906 -14.582031 2.835938 -15.179688 3.515625 -15.640625 C 4.203125 -16.109375 4.988281 -16.523438 5.875 -16.890625 C 7.382812 -17.484375 8.96875 -17.90625 10.625 -18.15625 C 12.28125 -18.40625 13.828125 -18.53125 15.265625 -18.53125 C 16.703125 -18.53125 18.03125 -18.398438 19.25 -18.140625 C 19.820312 -18.585938 20.320312 -18.890625 20.75 -19.046875 C 21.175781 -19.203125 21.414062 -19.28125 21.46875 -19.28125 C 21.519531 -19.28125 21.554688 -19.273438 21.578125 -19.265625 C 21.671875 -19.265625 21.6875 -19.210938 21.625 -19.109375 C 21.570312 -19.003906 21.390625 -18.847656 21.078125 -18.640625 C 20.773438 -18.429688 20.484375 -18.1875 20.203125 -17.90625 C 21.210938 -17.632812 22.128906 -17.253906 22.953125 -16.765625 Z M 13.53125 -6.421875 C 14.695312 -6.421875 15.957031 -6.625 17.3125 -7.03125 C 18.664062 -7.4375 19.863281 -8.023438 20.90625 -8.796875 C 22.9375 -10.335938 23.953125 -11.925781 23.953125 -13.5625 C 23.953125 -15.414062 22.550781 -16.675781 19.75 -17.34375 C 18.863281 -16.101562 17.710938 -14.222656 16.296875 -11.703125 C 14.890625 -9.179688 13.859375 -7.421875 13.203125 -6.421875 C 13.316406 -6.421875 13.425781 -6.421875 13.53125 -6.421875 Z M 13.53125 -6.421875 "/></g></g></g><g fill="#ad8d02" fill-opacity="1"><g transform="translate(66.235888, 34.069967)"><g><path d="M 8.578125 -6.4375 C 8.296875 -6.15625 7.894531 -5.507812 7.375 -4.5 C 6.851562 -3.5 6.539062 -2.75 6.4375 -2.25 C 6.332031 -1.75 6.28125 -1.34375 6.28125 -1.03125 C 6.28125 -0.726562 6.398438 -0.578125 6.640625 -0.578125 C 6.941406 -0.578125 7.3125 -0.851562 7.75 -1.40625 C 8.40625 -2.207031 9.046875 -3.257812 9.671875 -4.5625 C 9.742188 -4.707031 9.816406 -4.785156 9.890625 -4.796875 C 10.015625 -4.847656 10.078125 -4.800781 10.078125 -4.65625 C 10.078125 -4.582031 10.054688 -4.488281 10.015625 -4.375 C 8.554688 -1.425781 7.328125 0.046875 6.328125 0.046875 C 5.867188 0.046875 5.492188 -0.175781 5.203125 -0.625 C 5.066406 -0.851562 5 -1.164062 5 -1.5625 C 5 -1.96875 5.078125 -2.453125 5.234375 -3.015625 C 3.960938 -0.972656 2.867188 0.046875 1.953125 0.046875 C 1.691406 0.046875 1.460938 -0.03125 1.265625 -0.1875 C 0.785156 -0.519531 0.546875 -1.09375 0.546875 -1.90625 C 0.546875 -3.457031 1.21875 -5.035156 2.5625 -6.640625 C 3.320312 -7.523438 4.257812 -8.101562 5.375 -8.375 C 5.675781 -8.445312 5.960938 -8.484375 6.234375 -8.484375 C 6.960938 -8.484375 7.578125 -8.234375 8.078125 -7.734375 C 8.242188 -7.554688 8.296875 -7.382812 8.234375 -7.21875 C 8.171875 -7.0625 8.035156 -7.003906 7.828125 -7.046875 C 7.648438 -7.609375 7.269531 -7.890625 6.6875 -7.890625 C 6 -7.890625 5.15625 -7.351562 4.15625 -6.28125 C 3.59375 -5.644531 3.0625 -4.898438 2.5625 -4.046875 C 1.945312 -3.015625 1.640625 -2.1875 1.640625 -1.5625 C 1.640625 -0.945312 1.835938 -0.640625 2.234375 -0.640625 C 3.179688 -0.640625 4.425781 -2.097656 5.96875 -5.015625 C 6.269531 -5.597656 6.523438 -6 6.734375 -6.21875 C 6.941406 -6.4375 7.203125 -6.546875 7.515625 -6.546875 C 7.578125 -6.546875 7.738281 -6.519531 8 -6.46875 C 8.257812 -6.414062 8.453125 -6.40625 8.578125 -6.4375 Z M 8.578125 -6.4375 "/></g></g></g><g fill="#ad8d02" fill-opacity="1"><g transform="translate(74.556663, 34.069967)"><g><path d="M 8.53125 -7.796875 C 6.582031 -4.367188 5.609375 -2.132812 5.609375 -1.09375 C 5.609375 -0.675781 5.757812 -0.46875 6.0625 -0.46875 C 6.875 -0.46875 7.960938 -1.84375 9.328125 -4.59375 C 9.421875 -4.8125 9.515625 -4.894531 9.609375 -4.84375 C 9.703125 -4.800781 9.75 -4.738281 9.75 -4.65625 C 9.75 -4.582031 9.71875 -4.488281 9.65625 -4.375 C 8.8125 -2.675781 8.097656 -1.503906 7.515625 -0.859375 C 6.941406 -0.222656 6.363281 0.09375 5.78125 0.09375 C 5.207031 0.09375 4.769531 -0.128906 4.46875 -0.578125 C 4.3125 -0.773438 4.234375 -1.050781 4.234375 -1.40625 C 4.234375 -1.769531 4.3125 -2.203125 4.46875 -2.703125 C 4.625 -3.210938 5.0625 -4.039062 5.78125 -5.1875 C 5.957031 -5.46875 6.046875 -5.691406 6.046875 -5.859375 C 6.046875 -6.023438 5.910156 -6.109375 5.640625 -6.109375 C 5.367188 -6.109375 4.851562 -5.753906 4.09375 -5.046875 C 2.945312 -3.992188 1.84375 -2.421875 0.78125 -0.328125 C 0.6875 -0.171875 0.578125 -0.0703125 0.453125 -0.03125 C 0.335938 0.0078125 0.109375 0.0351562 -0.234375 0.046875 C -0.585938 0.0664062 -0.816406 0.109375 -0.921875 0.171875 C -0.671875 -0.335938 -0.171875 -1.378906 0.578125 -2.953125 C 1.898438 -5.722656 2.769531 -7.304688 3.1875 -7.703125 C 3.375 -7.890625 3.632812 -7.984375 3.96875 -7.984375 C 4.03125 -7.984375 4.191406 -7.957031 4.453125 -7.90625 C 4.710938 -7.863281 4.910156 -7.859375 5.046875 -7.890625 C 4.453125 -7.578125 3.492188 -6.085938 2.171875 -3.421875 C 2.910156 -4.335938 3.582031 -5.066406 4.1875 -5.609375 C 4.800781 -6.160156 5.535156 -6.671875 6.390625 -7.140625 C 7.253906 -7.609375 7.882812 -7.84375 8.28125 -7.84375 C 8.375 -7.84375 8.457031 -7.828125 8.53125 -7.796875 Z M 8.53125 -7.796875 "/></g></g></g><g fill="#ad8d02" fill-opacity="1"><g transform="translate(82.520826, 34.069967)"><g><path d="M 4.609375 -9.25 C 4.390625 -9.0625 4.144531 -8.96875 3.875 -8.96875 C 3.601562 -8.96875 3.390625 -9.0625 3.234375 -9.25 C 3.078125 -9.4375 3.015625 -9.664062 3.046875 -9.9375 C 3.085938 -10.207031 3.21875 -10.4375 3.4375 -10.625 C 3.664062 -10.820312 3.914062 -10.921875 4.1875 -10.921875 C 4.457031 -10.921875 4.675781 -10.820312 4.84375 -10.625 C 5.007812 -10.4375 5.066406 -10.207031 5.015625 -9.9375 C 4.972656 -9.664062 4.835938 -9.4375 4.609375 -9.25 Z M 2.28125 -0.515625 C 2.582031 -0.515625 2.898438 -0.664062 3.234375 -0.96875 C 3.816406 -1.5625 4.5625 -2.757812 5.46875 -4.5625 C 5.582031 -4.800781 5.691406 -4.875 5.796875 -4.78125 C 5.828125 -4.75 5.84375 -4.695312 5.84375 -4.625 C 5.84375 -4.550781 5.78125 -4.375 5.65625 -4.09375 C 5.53125 -3.820312 5.414062 -3.570312 5.3125 -3.34375 C 5.207031 -3.125 5.007812 -2.765625 4.71875 -2.265625 C 4.425781 -1.765625 4.160156 -1.382812 3.921875 -1.125 C 3.273438 -0.375 2.660156 0 2.078125 0 C 1.503906 0 1.085938 -0.171875 0.828125 -0.515625 C 0.578125 -0.867188 0.453125 -1.257812 0.453125 -1.6875 C 0.453125 -2.113281 0.554688 -2.582031 0.765625 -3.09375 L 2.28125 -6.96875 C 2.3125 -7.0625 2.328125 -7.1875 2.328125 -7.34375 C 2.328125 -7.507812 2.234375 -7.71875 2.046875 -7.96875 L 3.359375 -7.984375 C 3.722656 -7.984375 3.9375 -7.914062 4 -7.78125 C 4.0625 -7.65625 4.015625 -7.445312 3.859375 -7.15625 L 1.953125 -2.71875 C 1.679688 -2.125 1.546875 -1.625 1.546875 -1.21875 C 1.546875 -0.75 1.789062 -0.515625 2.28125 -0.515625 Z M 2.28125 -0.515625 "/></g></g></g><g fill="#ad8d02" fill-opacity="1"><g transform="translate(86.657435, 34.069967)"><g><path d="M 8.53125 -7.796875 C 6.582031 -4.367188 5.609375 -2.132812 5.609375 -1.09375 C 5.609375 -0.675781 5.757812 -0.46875 6.0625 -0.46875 C 6.875 -0.46875 7.960938 -1.84375 9.328125 -4.59375 C 9.421875 -4.8125 9.515625 -4.894531 9.609375 -4.84375 C 9.703125 -4.800781 9.75 -4.738281 9.75 -4.65625 C 9.75 -4.582031 9.71875 -4.488281 9.65625 -4.375 C 8.8125 -2.675781 8.097656 -1.503906 7.515625 -0.859375 C 6.941406 -0.222656 6.363281 0.09375 5.78125 0.09375 C 5.207031 0.09375 4.769531 -0.128906 4.46875 -0.578125 C 4.3125 -0.773438 4.234375 -1.050781 4.234375 -1.40625 C 4.234375 -1.769531 4.3125 -2.203125 4.46875 -2.703125 C 4.625 -3.210938 5.0625 -4.039062 5.78125 -5.1875 C 5.957031 -5.46875 6.046875 -5.691406 6.046875 -5.859375 C 6.046875 -6.023438 5.910156 -6.109375 5.640625 -6.109375 C 5.367188 -6.109375 4.851562 -5.753906 4.09375 -5.046875 C 2.945312 -3.992188 1.84375 -2.421875 0.78125 -0.328125 C 0.6875 -0.171875 0.578125 -0.0703125 0.453125 -0.03125 C 0.335938 0.0078125 0.109375 0.0351562 -0.234375 0.046875 C -0.585938 0.0664062 -0.816406 0.109375 -0.921875 0.171875 C -0.671875 -0.335938 -0.171875 -1.378906 0.578125 -2.953125 C 1.898438 -5.722656 2.769531 -7.304688 3.1875 -7.703125 C 3.375 -7.890625 3.632812 -7.984375 3.96875 -7.984375 C 4.03125 -7.984375 4.191406 -7.957031 4.453125 -7.90625 C 4.710938 -7.863281 4.910156 -7.859375 5.046875 -7.890625 C 4.453125 -7.578125 3.492188 -6.085938 2.171875 -3.421875 C 2.910156 -4.335938 3.582031 -5.066406 4.1875 -5.609375 C 4.800781 -6.160156 5.535156 -6.671875 6.390625 -7.140625 C 7.253906 -7.609375 7.882812 -7.84375 8.28125 -7.84375 C 8.375 -7.84375 8.457031 -7.828125 8.53125 -7.796875 Z M 8.53125 -7.796875 "/></g></g></g><g fill="#ad8d02" fill-opacity="1"><g transform="translate(94.621598, 34.069967)"><g><path d="M 4.609375 -9.25 C 4.390625 -9.0625 4.144531 -8.96875 3.875 -8.96875 C 3.601562 -8.96875 3.390625 -9.0625 3.234375 -9.25 C 3.078125 -9.4375 3.015625 -9.664062 3.046875 -9.9375 C 3.085938 -10.207031 3.21875 -10.4375 3.4375 -10.625 C 3.664062 -10.820312 3.914062 -10.921875 4.1875 -10.921875 C 4.457031 -10.921875 4.675781 -10.820312 4.84375 -10.625 C 5.007812 -10.4375 5.066406 -10.207031 5.015625 -9.9375 C 4.972656 -9.664062 4.835938 -9.4375 4.609375 -9.25 Z M 2.28125 -0.515625 C 2.582031 -0.515625 2.898438 -0.664062 3.234375 -0.96875 C 3.816406 -1.5625 4.5625 -2.757812 5.46875 -4.5625 C 5.582031 -4.800781 5.691406 -4.875 5.796875 -4.78125 C 5.828125 -4.75 5.84375 -4.695312 5.84375 -4.625 C 5.84375 -4.550781 5.78125 -4.375 5.65625 -4.09375 C 5.53125 -3.820312 5.414062 -3.570312 5.3125 -3.34375 C 5.207031 -3.125 5.007812 -2.765625 4.71875 -2.265625 C 4.425781 -1.765625 4.160156 -1.382812 3.921875 -1.125 C 3.273438 -0.375 2.660156 0 2.078125 0 C 1.503906 0 1.085938 -0.171875 0.828125 -0.515625 C 0.578125 -0.867188 0.453125 -1.257812 0.453125 -1.6875 C 0.453125 -2.113281 0.554688 -2.582031 0.765625 -3.09375 L 2.28125 -6.96875 C 2.3125 -7.0625 2.328125 -7.1875 2.328125 -7.34375 C 2.328125 -7.507812 2.234375 -7.71875 2.046875 -7.96875 L 3.359375 -7.984375 C 3.722656 -7.984375 3.9375 -7.914062 4 -7.78125 C 4.0625 -7.65625 4.015625 -7.445312 3.859375 -7.15625 L 1.953125 -2.71875 C 1.679688 -2.125 1.546875 -1.625 1.546875 -1.21875 C 1.546875 -0.75 1.789062 -0.515625 2.28125 -0.515625 Z M 2.28125 -0.515625 "/></g></g></g><g fill="#ad8d02" fill-opacity="1"><g transform="translate(98.75365, 34.069967)"><g/></g></g><g clip-path="url(#id1)"><path fill="#508789" d="M 55.757812 28.929688 C 55.757812 28.894531 55.757812 28.859375 55.757812 28.820312 C 55.765625 27.371094 55.9375 25.921875 56.265625 24.511719 C 56.914062 21.75 58.179688 19.113281 59.9375 16.882812 C 59.96875 16.839844 60.03125 16.832031 60.070312 16.867188 C 60.113281 16.898438 60.121094 16.960938 60.089844 17.003906 C 56.46875 21.601562 55.136719 27.519531 56.433594 33.234375 C 57.570312 38.238281 60.574219 42.5 64.894531 45.230469 C 69.214844 47.964844 74.332031 48.835938 79.304688 47.691406 C 84.277344 46.550781 88.507812 43.523438 91.222656 39.175781 C 93.933594 34.824219 94.800781 29.671875 93.664062 24.667969 C 92.640625 20.144531 90.027344 16.152344 86.308594 13.421875 C 86.265625 13.390625 86.257812 13.328125 86.289062 13.285156 C 86.320312 13.242188 86.382812 13.230469 86.425781 13.261719 C 88.265625 14.613281 89.835938 16.261719 91.09375 18.160156 C 92.398438 20.125 93.328125 22.296875 93.855469 24.621094 C 94.433594 27.179688 94.5 29.773438 94.050781 32.332031 C 93.613281 34.804688 92.71875 37.140625 91.386719 39.277344 C 90.054688 41.414062 88.351562 43.242188 86.328125 44.710938 C 84.234375 46.230469 81.886719 47.300781 79.347656 47.882812 C 76.808594 48.46875 74.234375 48.535156 71.691406 48.082031 C 69.234375 47.640625 66.914062 46.738281 64.792969 45.398438 C 62.671875 44.054688 60.855469 42.34375 59.394531 40.308594 C 57.886719 38.199219 56.828125 35.832031 56.246094 33.277344 C 55.921875 31.847656 55.757812 30.386719 55.757812 28.929688 " fill-opacity="1" fill-rule="nonzero"/></g><path fill="#508789" d="M 60.617188 16.347656 C 62.417969 14.585938 64.4375 13.042969 66.652344 11.847656 C 68.859375 10.65625 71.28125 9.8125 73.785156 9.582031 C 75.273438 9.445312 76.761719 9.53125 78.21875 9.863281 C 78.394531 9.902344 78.46875 9.632812 78.292969 9.59375 C 75.730469 9.011719 73.066406 9.1875 70.550781 9.925781 C 68.089844 10.648438 65.785156 11.871094 63.710938 13.371094 C 62.546875 14.214844 61.449219 15.144531 60.421875 16.148438 C 60.292969 16.277344 60.488281 16.472656 60.617188 16.347656 " fill-opacity="1" fill-rule="nonzero"/><path fill="#508789" d="M 78.070312 9.757812 C 78.871094 10.542969 79.707031 11.386719 80.730469 11.871094 C 81.785156 12.375 82.976562 12.429688 84.117188 12.59375 C 84.773438 12.6875 85.433594 12.820312 86.042969 13.097656 C 86.164062 13.152344 86.269531 12.980469 86.148438 12.917969 C 85.039062 12.324219 84.207031 11.359375 83.257812 10.550781 C 82.808594 10.171875 82.324219 9.863281 81.765625 9.671875 C 81.214844 9.480469 80.625 9.40625 80.042969 9.402344 C 79.359375 9.394531 78.675781 9.484375 78.003906 9.601562 C 77.871094 9.625 77.925781 9.828125 78.058594 9.804688 C 79.203125 9.605469 80.414062 9.480469 81.542969 9.820312 C 82.132812 9.996094 82.644531 10.304688 83.113281 10.699219 C 83.5625 11.082031 83.984375 11.5 84.421875 11.898438 C 84.921875 12.351562 85.449219 12.777344 86.042969 13.097656 C 86.078125 13.039062 86.113281 12.976562 86.148438 12.917969 C 85.085938 12.429688 83.914062 12.375 82.777344 12.207031 C 82.207031 12.125 81.640625 12.015625 81.105469 11.808594 C 80.570312 11.597656 80.089844 11.273438 79.644531 10.914062 C 79.144531 10.511719 78.679688 10.0625 78.21875 9.609375 C 78.125 9.515625 77.976562 9.664062 78.070312 9.757812 " fill-opacity="1" fill-rule="nonzero"/><path fill="#508789" d="M 73.886719 9.566406 C 75.015625 9.46875 76.074219 9.097656 77.046875 8.519531 C 77.546875 8.222656 78.039062 7.910156 78.566406 7.664062 C 79.09375 7.421875 79.648438 7.238281 80.210938 7.113281 C 80.84375 6.972656 81.488281 6.90625 82.132812 6.917969 C 82.25 6.917969 82.277344 6.738281 82.160156 6.710938 C 81.40625 6.546875 80.652344 6.375 79.890625 6.238281 C 79.179688 6.113281 78.445312 6.023438 77.726562 6.164062 C 76.566406 6.390625 75.726562 7.222656 74.9375 8.046875 C 74.476562 8.527344 74.011719 9.007812 73.464844 9.390625 C 73.355469 9.464844 73.457031 9.648438 73.570312 9.570312 C 74.492188 8.929688 75.164062 8.015625 76.011719 7.285156 C 76.433594 6.921875 76.910156 6.617188 77.441406 6.453125 C 78.152344 6.234375 78.90625 6.285156 79.632812 6.40625 C 80.460938 6.542969 81.285156 6.734375 82.105469 6.914062 C 82.113281 6.84375 82.125 6.777344 82.132812 6.707031 C 81.011719 6.691406 79.890625 6.894531 78.851562 7.316406 C 78.324219 7.527344 77.832031 7.800781 77.34375 8.097656 C 76.835938 8.40625 76.324219 8.710938 75.765625 8.925781 C 75.164062 9.15625 74.527344 9.300781 73.886719 9.355469 C 73.753906 9.367188 73.75 9.578125 73.886719 9.566406 " fill-opacity="1" fill-rule="nonzero"/><path fill="#508789" d="M 71.714844 9.921875 C 72.480469 9.824219 73.199219 10.1875 73.808594 10.628906 C 74.394531 11.054688 74.871094 11.59375 75.398438 12.082031 C 75.894531 12.546875 76.449219 12.902344 77.113281 13.074219 C 77.785156 13.246094 78.488281 13.261719 79.179688 13.300781 C 79.949219 13.347656 80.753906 13.402344 81.449219 13.765625 C 81.550781 13.820312 81.671875 13.683594 81.574219 13.601562 C 81.015625 13.128906 80.445312 12.644531 79.777344 12.328125 C 79.109375 12.011719 78.363281 11.921875 77.726562 11.539062 C 76.699219 10.925781 75.882812 9.871094 74.652344 9.652344 C 73.800781 9.503906 72.921875 9.828125 72.082031 9.585938 C 71.953125 9.546875 71.898438 9.75 72.027344 9.789062 C 72.757812 10 73.511719 9.792969 74.253906 9.820312 C 74.894531 9.847656 75.457031 10.121094 75.96875 10.488281 C 76.464844 10.839844 76.914062 11.257812 77.417969 11.59375 C 77.675781 11.761719 77.949219 11.910156 78.238281 12.019531 C 78.601562 12.15625 78.976562 12.242188 79.339844 12.371094 C 80.132812 12.660156 80.792969 13.207031 81.429688 13.75 C 81.46875 13.695312 81.511719 13.640625 81.554688 13.585938 C 80.292969 12.929688 78.808594 13.191406 77.457031 12.933594 C 77.101562 12.867188 76.753906 12.765625 76.4375 12.59375 C 76.121094 12.425781 75.839844 12.207031 75.578125 11.964844 C 75.058594 11.488281 74.589844 10.960938 74.023438 10.53125 C 73.367188 10.03125 72.5625 9.605469 71.714844 9.710938 C 71.582031 9.726562 71.582031 9.9375 71.714844 9.921875 " fill-opacity="1" fill-rule="nonzero"/><g clip-path="url(#id2)"><path fill="#508789" d="M 68.707031 10.761719 C 69.214844 10.335938 69.664062 9.839844 70.039062 9.292969 C 70.394531 8.769531 70.664062 8.203125 70.902344 7.617188 C 71.128906 7.058594 71.34375 6.488281 71.664062 5.976562 C 72.019531 5.417969 72.507812 5.019531 73.117188 4.773438 C 73.476562 4.628906 73.847656 4.523438 74.214844 4.410156 C 74.628906 4.285156 75.042969 4.160156 75.457031 4.035156 C 75.421875 3.976562 75.386719 3.917969 75.355469 3.863281 C 74.335938 4.660156 73.277344 5.496094 72.648438 6.652344 C 72.320312 7.253906 72.15625 7.929688 71.804688 8.515625 C 71.488281 9.039062 71.007812 9.4375 70.496094 9.75 C 69.90625 10.113281 69.261719 10.375 68.609375 10.585938 C 68.480469 10.628906 68.535156 10.828125 68.664062 10.789062 C 69.785156 10.425781 71.003906 9.902344 71.753906 8.949219 C 72.179688 8.410156 72.367188 7.753906 72.640625 7.136719 C 72.917969 6.515625 73.320312 5.964844 73.792969 5.480469 C 74.316406 4.9375 74.910156 4.472656 75.5 4.007812 C 75.585938 3.941406 75.492188 3.804688 75.398438 3.835938 C 74.679688 4.050781 73.945312 4.242188 73.238281 4.503906 C 72.644531 4.722656 72.113281 5.042969 71.714844 5.546875 C 71.34375 6.019531 71.101562 6.570312 70.878906 7.125 C 70.632812 7.722656 70.398438 8.320312 70.0625 8.875 C 69.660156 9.53125 69.148438 10.117188 68.5625 10.613281 C 68.460938 10.699219 68.605469 10.847656 68.707031 10.761719 " fill-opacity="1" fill-rule="nonzero"/></g><path fill="#508789" d="M 67.089844 11.632812 C 67.675781 11.492188 68.292969 11.519531 68.859375 11.730469 C 69.414062 11.9375 69.867188 12.335938 70.382812 12.617188 C 71.355469 13.148438 72.496094 13.203125 73.480469 13.691406 C 74.082031 13.988281 74.53125 14.46875 74.96875 14.96875 C 75.027344 15.035156 75.152344 14.980469 75.148438 14.894531 C 75.117188 14.304688 75.007812 13.707031 74.738281 13.179688 C 74.457031 12.640625 73.996094 12.238281 73.445312 11.988281 C 72.855469 11.722656 72.214844 11.625 71.574219 11.566406 C 71.203125 11.535156 70.832031 11.511719 70.464844 11.476562 C 70.097656 11.441406 69.734375 11.382812 69.371094 11.320312 C 68.609375 11.1875 67.820312 11.058594 67.066406 11.304688 C 66.941406 11.347656 66.996094 11.550781 67.121094 11.507812 C 67.773438 11.292969 68.453125 11.375 69.113281 11.484375 C 69.78125 11.597656 70.4375 11.6875 71.113281 11.738281 C 72.285156 11.828125 73.699219 11.964844 74.414062 13.042969 C 74.773438 13.585938 74.90625 14.25 74.9375 14.894531 C 74.996094 14.867188 75.058594 14.84375 75.117188 14.820312 C 74.71875 14.367188 74.308594 13.914062 73.78125 13.613281 C 73.289062 13.332031 72.742188 13.175781 72.199219 13.03125 C 71.644531 12.882812 71.085938 12.746094 70.574219 12.480469 C 70.042969 12.207031 69.582031 11.800781 69.027344 11.570312 C 68.398438 11.3125 67.691406 11.269531 67.035156 11.433594 C 66.902344 11.464844 66.960938 11.667969 67.089844 11.632812 " fill-opacity="1" fill-rule="nonzero"/><path fill="#508789" d="M 62.980469 14.214844 C 63.800781 13.367188 64.449219 12.367188 64.890625 11.269531 C 64.9375 11.144531 64.738281 11.089844 64.6875 11.214844 C 64.261719 12.273438 63.628906 13.246094 62.835938 14.066406 C 62.742188 14.160156 62.886719 14.308594 62.980469 14.214844 " fill-opacity="1" fill-rule="nonzero"/><path fill="#508789" d="M 64.835938 11.359375 C 65.019531 10.824219 65.164062 10.277344 65.394531 9.761719 C 65.613281 9.265625 65.898438 8.796875 66.265625 8.398438 C 66.636719 7.992188 67.074219 7.699219 67.550781 7.4375 C 68.046875 7.167969 68.515625 6.84375 68.875 6.394531 C 69.25 5.925781 69.492188 5.335938 69.363281 4.730469 C 69.300781 4.757812 69.238281 4.785156 69.171875 4.8125 C 69.75 5.835938 69.394531 7.132812 68.632812 7.953125 C 68.253906 8.355469 67.792969 8.667969 67.304688 8.925781 C 67.039062 9.0625 66.757812 9.179688 66.496094 9.324219 C 66.246094 9.464844 66.019531 9.636719 65.8125 9.832031 C 65.34375 10.285156 64.988281 10.84375 64.640625 11.390625 C 64.570312 11.503906 64.75 11.609375 64.820312 11.496094 C 65.148438 10.980469 65.480469 10.460938 65.914062 10.027344 C 66.132812 9.8125 66.375 9.628906 66.644531 9.480469 C 66.925781 9.328125 67.222656 9.207031 67.503906 9.054688 C 68.492188 8.515625 69.367188 7.6875 69.601562 6.542969 C 69.726562 5.921875 69.667969 5.261719 69.351562 4.707031 C 69.292969 4.601562 69.140625 4.671875 69.164062 4.785156 C 69.285156 5.351562 69.019531 5.914062 68.65625 6.332031 C 68.265625 6.78125 67.78125 7.070312 67.269531 7.355469 C 66.359375 7.863281 65.679688 8.640625 65.242188 9.589844 C 64.988281 10.140625 64.835938 10.730469 64.632812 11.300781 C 64.589844 11.429688 64.789062 11.484375 64.835938 11.359375 " fill-opacity="1" fill-rule="nonzero"/><path fill="#508789" d="M 64.933594 11.050781 C 65.375 10.199219 65.957031 9.425781 66.660156 8.773438 C 67.011719 8.445312 67.398438 8.160156 67.796875 7.886719 C 68.1875 7.617188 68.578125 7.34375 68.890625 6.980469 C 68.945312 6.914062 68.847656 6.8125 68.789062 6.882812 C 68.464844 7.261719 68.054688 7.539062 67.648438 7.820312 C 67.253906 8.089844 66.875 8.378906 66.527344 8.707031 C 65.832031 9.359375 65.253906 10.132812 64.816406 10.980469 C 64.773438 11.058594 64.894531 11.132812 64.933594 11.050781 " fill-opacity="1" fill-rule="nonzero"/><path fill="#508789" d="M 69.054688 10.46875 C 69.863281 9.964844 70.558594 9.289062 71.078125 8.484375 C 71.609375 7.660156 71.941406 6.703125 72.636719 5.996094 C 72.699219 5.929688 72.601562 5.832031 72.539062 5.894531 C 71.867188 6.582031 71.527344 7.492188 71.03125 8.296875 C 70.515625 9.128906 69.8125 9.832031 68.984375 10.347656 C 68.910156 10.394531 68.980469 10.515625 69.054688 10.46875 " fill-opacity="1" fill-rule="nonzero"/><path fill="#508789" d="M 73.847656 9.332031 C 74.261719 9.152344 74.683594 8.96875 75.058594 8.714844 C 75.433594 8.460938 75.75 8.136719 76.113281 7.867188 C 76.816406 7.347656 77.632812 7.007812 78.492188 6.867188 C 78.578125 6.851562 78.542969 6.71875 78.453125 6.734375 C 77.601562 6.875 76.785156 7.210938 76.082031 7.71875 C 75.71875 7.984375 75.398438 8.304688 75.03125 8.5625 C 74.644531 8.835938 74.207031 9.023438 73.777344 9.210938 C 73.695312 9.246094 73.765625 9.367188 73.847656 9.332031 " fill-opacity="1" fill-rule="nonzero"/><path fill="#508789" d="M 78.316406 9.761719 C 78.75 9.933594 79.183594 10.109375 79.617188 10.28125 C 80.039062 10.449219 80.457031 10.636719 80.890625 10.769531 C 81.089844 10.832031 81.292969 10.878906 81.5 10.902344 C 81.726562 10.925781 81.953125 10.929688 82.175781 10.980469 C 82.574219 11.070312 82.9375 11.269531 83.226562 11.558594 C 83.289062 11.621094 83.386719 11.523438 83.324219 11.460938 C 83.050781 11.1875 82.714844 10.984375 82.34375 10.878906 C 81.914062 10.753906 81.460938 10.789062 81.027344 10.667969 C 80.585938 10.539062 80.15625 10.347656 79.730469 10.175781 C 79.269531 9.992188 78.8125 9.8125 78.351562 9.628906 C 78.269531 9.59375 78.234375 9.730469 78.316406 9.761719 " fill-opacity="1" fill-rule="nonzero"/><path fill="#508789" d="M 72.007812 9.902344 C 72.519531 9.9375 73.03125 9.96875 73.527344 10.101562 C 73.960938 10.214844 74.359375 10.421875 74.734375 10.675781 C 75.472656 11.164062 76.125 11.761719 76.949219 12.109375 C 77.429688 12.316406 77.9375 12.449219 78.457031 12.515625 C 78.546875 12.527344 78.542969 12.386719 78.457031 12.375 C 77.507812 12.253906 76.636719 11.882812 75.859375 11.324219 C 75.160156 10.820312 74.5 10.242188 73.660156 9.992188 C 73.125 9.835938 72.5625 9.800781 72.007812 9.761719 C 71.921875 9.757812 71.921875 9.894531 72.007812 9.902344 " fill-opacity="1" fill-rule="nonzero"/><path fill="#508789" d="M 67.800781 11.429688 C 68.652344 11.421875 69.472656 11.660156 70.277344 11.914062 C 70.679688 12.042969 71.078125 12.175781 71.484375 12.285156 C 71.886719 12.394531 72.300781 12.453125 72.707031 12.550781 C 72.933594 12.609375 73.15625 12.6875 73.355469 12.816406 C 73.5625 12.949219 73.746094 13.117188 73.929688 13.285156 C 73.992188 13.347656 74.09375 13.25 74.027344 13.1875 C 73.730469 12.914062 73.429688 12.648438 73.042969 12.507812 C 72.632812 12.355469 72.183594 12.316406 71.761719 12.210938 C 70.910156 12.003906 70.097656 11.675781 69.25 11.472656 C 68.773438 11.359375 68.289062 11.285156 67.800781 11.292969 C 67.710938 11.292969 67.710938 11.433594 67.800781 11.429688 " fill-opacity="1" fill-rule="nonzero"/><path fill="#508789" d="M 64.199219 13.355469 C 64.5 13.238281 64.816406 13.117188 65.144531 13.128906 C 65.292969 13.132812 65.4375 13.171875 65.585938 13.164062 C 65.722656 13.15625 65.851562 13.117188 65.972656 13.054688 C 66.035156 13.019531 66.003906 12.925781 65.9375 12.925781 C 65.640625 12.914062 65.355469 12.757812 65.058594 12.792969 C 64.773438 12.824219 64.523438 12.984375 64.292969 13.140625 C 64.21875 13.1875 64.285156 13.308594 64.363281 13.257812 C 64.59375 13.105469 64.851562 12.933594 65.136719 12.925781 C 65.28125 12.921875 65.414062 12.976562 65.550781 13.011719 C 65.679688 13.042969 65.808594 13.058594 65.9375 13.0625 C 65.925781 13.019531 65.914062 12.976562 65.902344 12.933594 C 65.597656 13.089844 65.308594 12.96875 64.992188 12.992188 C 64.703125 13.015625 64.429688 13.113281 64.164062 13.222656 C 64.082031 13.253906 64.117188 13.390625 64.199219 13.355469 " fill-opacity="1" fill-rule="nonzero"/><g clip-path="url(#id3)"><path fill="#75b2b4" d="M 7.992188 5.566406 L 1.660156 5.566406 L 1.660156 17.785156 L 0.753906 17.785156 L 0.753906 4.660156 L 8.902344 4.660156 Z M 7.992188 5.566406 " fill-opacity="1" fill-rule="nonzero"/></g><g clip-path="url(#id4)"><path stroke-linecap="butt" transform="matrix(0.00266743, 0, 0, 0.00266743, 0.754648, 0.0460521)" fill="none" stroke-linejoin="miter" d="M 2713.304881 2069.543614 L 339.469005 2069.543614 L 339.469005 6650.270708 L -0.278017 6650.270708 L -0.278017 1729.796591 L 3054.51633 1729.796591 Z M 2713.304881 2069.543614 " stroke="#000000" stroke-width="35.278" stroke-opacity="1" stroke-miterlimit="4"/></g><g clip-path="url(#id5)"><path fill="#75b2b4" d="M 18.492188 0.046875 L 18.492188 0.949219 L 6.277344 0.949219 L 6.277344 7.285156 L 5.371094 8.191406 L 5.371094 0.046875 Z M 18.492188 0.046875 " fill-opacity="1" fill-rule="nonzero"/></g><g clip-path="url(#id6)"><path stroke-linecap="butt" transform="matrix(0.00266743, 0, 0, 0.00266743, 0.754648, 0.0460521)" fill="none" stroke-linejoin="miter" d="M 6649.684174 0.308516 L 6649.684174 338.591112 L 2070.421507 338.591112 L 2070.421507 2713.891415 L 1730.674484 3053.638437 L 1730.674484 0.308516 Z M 6649.684174 0.308516 " stroke="#000000" stroke-width="35.278" stroke-opacity="1" stroke-miterlimit="4"/></g><g clip-path="url(#id7)"><path fill="#dbab04" d="M 3.46875 12.085938 L 3.46875 3.664062 L 0.753906 3.664062 L 0.753906 0.046875 L 4.375 0.046875 L 4.375 2.761719 L 12.792969 2.761719 L 11.886719 3.664062 L 4.375 3.664062 L 4.375 11.175781 Z M 3.46875 2.761719 L 3.46875 0.949219 L 1.660156 0.949219 L 1.660156 2.761719 Z M 3.46875 2.761719 " fill-opacity="1" fill-rule="nonzero"/></g><g clip-path="url(#id8)"><path stroke-linecap="butt" transform="matrix(0.00266743, 0, 0, 0.00266743, 0.754648, 0.0460521)" fill="none" stroke-linejoin="miter" d="M 1017.498623 4513.671977 L 1017.498623 1356.367752 L -0.278017 1356.367752 L -0.278017 0.308516 L 1357.245645 0.308516 L 1357.245645 1018.085157 L 4513.085443 1018.085157 L 4173.338421 1356.367752 L 1357.245645 1356.367752 L 1357.245645 4172.460528 Z M 1017.498623 1018.085157 L 1017.498623 338.591112 L 339.469005 338.591112 L 339.469005 1018.085157 Z M 1017.498623 1018.085157 " stroke="#000000" stroke-width="35.278" stroke-opacity="1" stroke-miterlimit="4"/></g><g clip-path="url(#id9)"><path stroke-linecap="butt" transform="matrix(0, -0.00266743, 0.00266743, 0, 1.038083, 51.750809)" fill-opacity="1" fill="#75b2b4" fill-rule="nonzero" stroke-linejoin="miter" d="M 2713.886255 2069.602323 L 338.585952 2069.602323 L 338.585952 6650.329417 L 0.303356 6650.329417 L 0.303356 1729.855301 L 3053.633277 1729.855301 Z M 2713.886255 2069.602323 " stroke="#000000" stroke-width="35.278" stroke-opacity="1" stroke-miterlimit="4"/></g><path fill="#75b2b4" d="M 1.039062 34.011719 L 1.941406 34.011719 L 1.941406 46.230469 L 8.277344 46.230469 L 9.183594 47.136719 L 1.039062 47.136719 Z M 1.039062 34.011719 " fill-opacity="1" fill-rule="nonzero"/><g clip-path="url(#id10)"><path stroke-linecap="butt" transform="matrix(0, -0.00266743, 0.00266743, 0, 1.038083, 51.750809)" fill="none" stroke-linejoin="miter" d="M 6650.265548 0.367226 L 6650.265548 338.649821 L 2069.538454 338.649821 L 2069.538454 2713.950124 L 1729.791431 3053.697146 L 1729.791431 0.367226 Z M 6650.265548 0.367226 " stroke="#000000" stroke-width="35.278" stroke-opacity="1" stroke-miterlimit="4"/></g><g clip-path="url(#id11)"><path fill="#dbab04" d="M 13.078125 49.035156 L 4.65625 49.035156 L 4.65625 51.75 L 1.039062 51.75 L 1.039062 48.132812 L 3.753906 48.132812 L 3.753906 39.710938 L 4.65625 40.621094 L 4.65625 48.132812 L 12.167969 48.132812 Z M 3.753906 49.035156 L 1.941406 49.035156 L 1.941406 50.847656 L 3.753906 50.847656 Z M 3.753906 49.035156 " fill-opacity="1" fill-rule="nonzero"/></g><g clip-path="url(#id12)"><path stroke-linecap="butt" transform="matrix(0, -0.00266743, 0.00266743, 0, 1.038083, 51.750809)" fill="none" stroke-linejoin="miter" d="M 1018.079997 4513.730686 L 1018.079997 1356.426461 L 0.303356 1356.426461 L 0.303356 0.367226 L 1356.362592 0.367226 L 1356.362592 1018.143866 L 4513.666817 1018.143866 L 4172.455368 1356.426461 L 1356.362592 1356.426461 L 1356.362592 4172.519237 Z M 1018.079997 1018.143866 L 1018.079997 338.649821 L 338.585952 338.649821 L 338.585952 1018.143866 Z M 1018.079997 1018.143866 " stroke="#000000" stroke-width="35.278" stroke-opacity="1" stroke-miterlimit="4"/></g><g clip-path="url(#id13)"><path fill="#75b2b4" d="M 142.089844 46.296875 L 148.425781 46.296875 L 148.425781 34.078125 L 149.332031 34.078125 L 149.332031 47.203125 L 141.183594 47.203125 Z M 142.089844 46.296875 " fill-opacity="1" fill-rule="nonzero"/></g><g clip-path="url(#id14)"><path stroke-linecap="butt" transform="matrix(-0.00266743, -0, 0, -0.00266743, 149.331027, 51.817853)" fill="none" stroke-linejoin="miter" d="M 2714.670548 2069.777332 L 339.370436 2069.777332 L 339.370436 6650.504058 L -0.376559 6650.504058 L -0.376559 1730.030336 L 3054.417543 1730.030336 Z M 2714.670548 2069.777332 " stroke="#000000" stroke-width="35.278" stroke-opacity="1" stroke-miterlimit="4"/></g><g clip-path="url(#id15)"><path fill="#75b2b4" d="M 131.59375 51.816406 L 131.59375 50.914062 L 143.808594 50.914062 L 143.808594 44.578125 L 144.714844 43.671875 L 144.714844 51.816406 Z M 131.59375 51.816406 " fill-opacity="1" fill-rule="nonzero"/></g><g clip-path="url(#id16)"><path stroke-linecap="butt" transform="matrix(-0.00266743, -0, 0, -0.00266743, 149.331027, 51.817853)" fill="none" stroke-linejoin="miter" d="M 6649.585099 0.5424 L 6649.585099 338.824969 L 2070.322799 338.824969 L 2070.322799 2714.125081 L 1730.575804 3053.872076 L 1730.575804 0.5424 Z M 6649.585099 0.5424 " stroke="#000000" stroke-width="35.278" stroke-opacity="1" stroke-miterlimit="4"/></g><g clip-path="url(#id17)"><path fill="#dbab04" d="M 146.617188 39.78125 L 146.617188 48.199219 L 149.332031 48.199219 L 149.332031 51.816406 L 145.710938 51.816406 L 145.710938 49.101562 L 137.292969 49.101562 L 138.199219 48.199219 L 145.710938 48.199219 L 145.710938 40.6875 Z M 146.617188 49.101562 L 146.617188 50.914062 L 148.425781 50.914062 L 148.425781 49.101562 Z M 146.617188 49.101562 " fill-opacity="1" fill-rule="nonzero"/></g><g clip-path="url(#id18)"><path stroke-linecap="butt" transform="matrix(-0.00266743, -0, 0, -0.00266743, 149.331027, 51.817853)" fill="none" stroke-linejoin="miter" d="M 1017.399999 4512.441072 L 1017.399999 1356.601527 L -0.376559 1356.601527 L -0.376559 0.5424 L 1357.146994 0.5424 L 1357.146994 1018.318959 L 4512.986539 1018.318959 L 4173.239544 1356.601527 L 1357.146994 1356.601527 L 1357.146994 4172.694077 Z M 1017.399999 1018.318959 L 1017.399999 338.824969 L 339.370436 338.824969 L 339.370436 1018.318959 Z M 1017.399999 1018.318959 " stroke="#000000" stroke-width="35.278" stroke-opacity="1" stroke-miterlimit="4"/></g><g clip-path="url(#id19)"><path fill="#75b2b4" d="M 143.566406 7.8125 L 143.566406 1.210938 L 130.839844 1.210938 L 130.839844 0.269531 L 144.511719 0.269531 L 144.511719 8.757812 Z M 143.566406 7.8125 " fill-opacity="1" fill-rule="nonzero"/></g><g clip-path="url(#id20)"><path stroke-linecap="butt" transform="matrix(0, 0.00277857, -0.00277857, 0, 149.318926, 0.27074)" fill="none" stroke-linejoin="miter" d="M 2714.260685 2070.317687 L 338.374626 2070.317687 L 338.374626 6650.576136 L -0.435161 6650.576136 L -0.435161 1730.10205 L 3054.476322 1730.10205 Z M 2714.260685 2070.317687 " stroke="#000000" stroke-width="35.278" stroke-opacity="1" stroke-miterlimit="4"/></g><g clip-path="url(#id21)"><path fill="#75b2b4" d="M 149.320312 18.75 L 148.378906 18.75 L 148.378906 6.023438 L 141.777344 6.023438 L 140.832031 5.078125 L 149.320312 5.078125 Z M 149.320312 18.75 " fill-opacity="1" fill-rule="nonzero"/></g><g clip-path="url(#id22)"><path stroke-linecap="butt" transform="matrix(0, 0.00277857, -0.00277857, 0, 149.318926, 0.27074)" fill="none" stroke-linejoin="miter" d="M 6650.639954 -0.498979 L 6650.639954 338.310808 L 2070.381504 338.310808 L 2070.381504 2714.196867 L 1730.165868 3054.412504 L 1730.165868 -0.498979 Z M 6650.639954 -0.498979 " stroke="#000000" stroke-width="35.278" stroke-opacity="1" stroke-miterlimit="4"/></g><g clip-path="url(#id23)"><path fill="#dbab04" d="M 136.777344 3.097656 L 145.546875 3.097656 L 145.546875 0.269531 L 149.320312 0.269531 L 149.320312 4.042969 L 146.492188 4.042969 L 146.492188 12.808594 L 145.546875 11.867188 L 145.546875 4.042969 L 137.722656 4.042969 Z M 146.492188 3.097656 L 148.378906 3.097656 L 148.378906 1.210938 L 146.492188 1.210938 Z M 146.492188 3.097656 " fill-opacity="1" fill-rule="nonzero"/></g><g clip-path="url(#id24)"><path stroke-linecap="butt" transform="matrix(0, 0.00277857, -0.00277857, 0, 149.318926, 0.27074)" fill="none" stroke-linejoin="miter" d="M 1017.40005 4513.684533 L 1017.40005 1357.551869 L -0.435161 1357.551869 L -0.435161 -0.498979 L 1357.615687 -0.498979 L 1357.615687 1017.336232 L 4512.342501 1017.336232 L 4173.532714 1357.551869 L 1357.615687 1357.551869 L 1357.615687 4173.468896 Z M 1017.40005 1017.336232 L 1017.40005 338.310808 L 338.374626 338.310808 L 338.374626 1017.336232 Z M 1017.40005 1017.336232 " stroke="#000000" stroke-width="35.278" stroke-opacity="1" stroke-miterlimit="4"/></g></svg>